<svg xmlns="http://www.w3.org/2000/svg" viewBox="0 0 1600 1000" preserveAspectRatio="xMidYMid slice">
<g>
<path d="M352.4 361.7L362.7 358.8M362.7 358.8L373.3 356.3M373.3 356.3L384 354.6M384 354.6L394.7 353.5M394.7 353.5L405.3 353.3M405.3 353.3L416 354.1M416 354.1L426.7 356M426.7 356L437.3 359.2M437.3 359.2L443 361.7M326.5 372.3L330.7 370.3M330.7 370.3L341.3 365.8M341.3 365.8L352 361.8M352.4 361.7L352 361.8M443 361.7L448 364.4M448 364.4L458.7 372.2M458.7 372.2L458.8 372.3M307.5 383L309.3 381.9M309.3 381.9L320 375.7M326.5 372.3L320 375.7M458.8 372.3L467.5 383M292.8 393.6L298.7 389.2M307.5 383L298.7 389.2M467.5 383L469.3 386.2M469.3 386.2L472.8 393.6M280.8 404.3L288 397.7M292.8 393.6L288 397.7M472.8 393.6L475.8 404.3M271.2 414.9L277.3 407.9M280.8 404.3L277.3 407.9M475.8 404.3L476.9 414.9M263.5 425.5L266.7 420.9M271.2 414.9L266.7 420.9M476.9 414.9L476.5 425.5M263.5 425.5L257.6 436.2M476.5 425.5L474.5 436.2M253.5 446.8L256 440.2M257.6 436.2L256 440.2M474.5 436.2L471.2 446.8M253.5 446.8L251.1 457.4M466.4 457.4L469.3 451.1M471.2 446.8L469.3 451.1M251.1 457.4L250.5 468.1M466.4 457.4L460.1 468.1M250.5 468.1L251.9 478.7M452 478.7L458.7 470.1M460.1 468.1L458.7 470.1M251.9 478.7L255.3 489.4M441.7 489.4L448 483M452 478.7L448 483M255.3 489.4L256 490.7M256 490.7L261.8 500M428.9 500L437.3 493.2M441.7 489.4L437.3 493.2M261.8 500L266.7 505.5M266.7 505.5L272.1 510.6M412 510.6L416 508.3M416 508.3L426.7 501.5M428.9 500L426.7 501.5M272.1 510.6L277.3 514.4M277.3 514.4L288 520.6M288 520.6L289.5 521.3M387.9 521.3L394.7 518.7M394.7 518.7L405.3 514M412 510.6L405.3 514M289.5 521.3L298.7 524.7M298.7 524.7L309.3 527.5M309.3 527.5L320 529.3M320 529.3L330.7 530.2M330.7 530.2L341.3 530.2M341.3 530.2L352 529.3M352 529.3L362.7 527.8M362.7 527.8L373.3 525.5M373.3 525.5L384 522.6M387.9 521.3L384 522.6" fill="none" stroke="#F03BB6" stroke-width="1" stroke-opacity="0.26" stroke-linecap="round"/>
<path d="M403.5 276.6L405.3 276.1M405.3 276.1L416 273.9M416 273.9L426.7 272M426.7 272L437.3 270.5M437.3 270.5L448 269.3M448 269.3L458.7 268.7M458.7 268.7L469.3 268.6M469.3 268.6L480 269.1M480 269.1L490.7 270.3M490.7 270.3L501.3 272.4M501.3 272.4L512 275.5M512 275.5L515 276.6M366.5 287.2L373.3 284.9M373.3 284.9L384 281.7M384 281.7L394.7 278.8M403.5 276.6L394.7 278.8M515 276.6L522.7 279.9M522.7 279.9L533.3 286M533.3 286L535 287.2M337.9 297.9L341.3 296.5M341.3 296.5L352 292.4M352 292.4L362.7 288.5M366.5 287.2L362.7 288.5M535 287.2L544 294.6M544 294.6L547.3 297.9M314 308.5L320 305.7M320 305.7L330.7 301M337.9 297.9L330.7 301M547.3 297.9L554.7 306.6M554.7 306.6L556 308.5M293.3 319.1L298.7 316.2M298.7 316.2L309.3 310.8M314 308.5L309.3 310.8M556 308.5L562.3 319.1M274.9 329.8L277.3 328.3M277.3 328.3L288 322M293.3 319.1L288 322M562.3 319.1L565.3 325.5M565.3 325.5L567.1 329.8M258.6 340.4L266.7 335M274.9 329.8L266.7 335M567.1 329.8L570.6 340.4M244.1 351.1L245.3 350.1M245.3 350.1L256 342.2M258.6 340.4L256 342.2M570.6 340.4L573.2 351.1M231.3 361.7L234.7 358.8M244.1 351.1L234.7 358.8M573.2 351.1L574.8 361.7M219.8 372.3L224 368.3M231.3 361.7L224 368.3M574.8 361.7L575.7 372.3M209.7 383L213.3 379.1M219.8 372.3L213.3 379.1M575.7 372.3L575.8 383M200.9 393.6L202.7 391.4M209.7 383L202.7 391.4M575.8 383L575.3 393.6M200.9 393.6L193.2 404.3M575.3 393.6L574.1 404.3M186.7 414.9L192 406.2M193.2 404.3L192 406.2M574.1 404.3L572.3 414.9M181.1 425.5L181.3 425.2M186.7 414.9L181.3 425.2M572.3 414.9L569.8 425.5M181.1 425.5L176.8 436.2M569.8 425.5L566.7 436.2M176.8 436.2L173.4 446.8M562.9 446.8L565.3 440.2M566.7 436.2L565.3 440.2M173.4 446.8L170.9 457.4M562.9 446.8L558.4 457.4M169.5 468.1L170.7 459M170.9 457.4L170.7 459M553.2 468.1L554.7 465.1M558.4 457.4L554.7 465.1M169.5 468.1L169.1 478.7M553.2 468.1L547.1 478.7M169.1 478.7L169.8 489.4M540 489.4L544 483.4M547.1 478.7L544 483.4M169.8 489.4L170.7 495.2M170.7 495.2L171.5 500M532 500L533.3 498.3M540 489.4L533.3 498.3M171.5 500L174.5 510.6M532 500L522.8 510.6M174.5 510.6L178.8 521.3M512.2 521.3L522.7 510.8M522.8 510.6L522.7 510.8M178.8 521.3L181.3 526M181.3 526L184.7 531.9M500 531.9L501.3 530.8M501.3 530.8L512 521.5M512.2 521.3L512 521.5M184.7 531.9L192 542M192 542L192.5 542.6M485.8 542.6L490.7 539.1M500 531.9L490.7 539.1M192.5 542.6L202.6 553.2M469.1 553.2L469.3 553.1M469.3 553.1L480 546.4M485.8 542.6L480 546.4M202.6 553.2L202.7 553.3M202.7 553.3L213.3 561.8M213.3 561.8L216.1 563.8M448.8 563.8L458.7 558.8M469.1 553.2L458.7 558.8M216.1 563.8L224 568.7M224 568.7L234.7 574.5M234.7 574.5L234.8 574.5M422.8 574.5L426.7 573.1M426.7 573.1L437.3 568.8M437.3 568.8L448 564.2M448.8 563.8L448 564.2M234.8 574.5L245.3 578.9M245.3 578.9L256 582.6M256 582.6L264.6 585.1M385.4 585.1L394.7 582.9M394.7 582.9L405.3 580M405.3 580L416 576.8M422.8 574.5L416 576.8M264.6 585.1L266.7 585.6M266.7 585.6L277.3 587.9M277.3 587.9L288 589.6M288 589.6L298.7 590.8M298.7 590.8L309.3 591.6M309.3 591.6L320 591.9M320 591.9L330.7 591.8M330.7 591.8L341.3 591.3M341.3 591.3L352 590.4M352 590.4L362.7 589.1M362.7 589.1L373.3 587.4M373.3 587.4L384 585.4M385.4 585.1L384 585.4" fill="none" stroke="#F03BB6" stroke-width="1" stroke-opacity="0.27" stroke-linecap="round"/>
<path d="M517.4 180.9L522.7 179.6M522.7 179.6L533.3 177.2M533.3 177.2L544 175.2M544 175.2L554.7 173.5M554.7 173.5L565.3 172.3M565.3 172.3L576 171.7M576 171.7L586.7 171.9M586.7 171.9L597.3 173.1M597.3 173.1L608 175.9M608 175.9L618.7 180.8M618.7 180.8L618.9 180.9M478.7 191.5L480 191.1M480 191.1L490.7 188M490.7 188L501.3 185M501.3 185L512 182.2M517.4 180.9L512 182.2M618.9 180.9L629.3 189M629.3 189L631.6 191.5M445.9 202.1L448 201.4M448 201.4L458.7 197.8M458.7 197.8L469.3 194.4M478.7 191.5L469.3 194.4M631.6 191.5L639.6 202.1M416 212.8L426.7 208.9M426.7 208.9L437.3 205.1M445.9 202.1L437.3 205.1M639.6 202.1L640 202.7M640 202.7L645.1 212.8M388.5 223.4L394.7 220.9M394.7 220.9L405.3 216.8M405.3 216.8L416 212.8M416 212.8L416 212.8M645.1 212.8L649.4 223.4M362.6 234L362.7 233.9M362.7 233.9L373.3 229.5M373.3 229.5L384 225.2M388.5 223.4L384 225.2M649.4 223.4L650.7 227.1M650.7 227.1L652.7 234M338.3 244.7L341.3 243.3M341.3 243.3L352 238.6M362.6 234L352 238.6M652.7 234L655.3 244.7M315.6 255.3L320 253.2M320 253.2L330.7 248.2M338.3 244.7L330.7 248.2M655.3 244.7L657.4 255.3M294.3 266L298.7 263.7M298.7 263.7L309.3 258.4M315.6 255.3L309.3 258.4M657.4 255.3L659 266M274.4 276.6L277.3 275M277.3 275L288 269.3M294.3 266L288 269.3M659 266L660.3 276.6M255.8 287.2L256 287.1M256 287.1L266.7 280.9M274.4 276.6L266.7 280.9M660.3 276.6L661.2 287.2M238.6 297.9L245.3 293.7M255.8 287.2L245.3 293.7M661.2 287.2L661.3 289.5M661.3 289.5L661.7 297.9M222.7 308.5L224 307.6M224 307.6L234.7 300.5M238.6 297.9L234.7 300.5M661.7 297.9L662 308.5M208.1 319.1L213.3 315.2M222.7 308.5L213.3 315.2M662 308.5L662 319.1M194.7 329.8L202.7 323.3M208.1 319.1L202.7 323.3M662 319.1L661.7 329.8M182.4 340.4L192 332M194.7 329.8L192 332M661.1 340.4L661.3 336.6M661.7 329.8L661.3 336.6M171.3 351.1L181.3 341.4M182.4 340.4L181.3 341.4M661.1 340.4L660.2 351.1M161.3 361.7L170.7 351.7M171.3 351.1L170.7 351.7M660.2 351.1L659 361.7M152.3 372.3L160 363.2M161.3 361.7L160 363.2M659 361.7L657.5 372.3M144.3 383L149.3 376.2M152.3 372.3L149.3 376.2M657.5 372.3L655.7 383M137.2 393.6L138.7 391.4M144.3 383L138.7 391.4M655.7 383L653.6 393.6M137.2 393.6L131.1 404.3M653.6 393.6L651.1 404.3M125.7 414.9L128 410.3M131.1 404.3L128 410.3M648.2 414.9L650.7 405.8M651.1 404.3L650.7 405.8M125.7 414.9L121.2 425.5M648.2 414.9L645 425.5M121.2 425.5L117.5 436.2M645 425.5L641.4 436.2M114.7 446.8L117.3 437M117.5 436.2L117.3 437M637.3 446.8L640 439.7M641.4 436.2L640 439.7M114.7 446.8L112.5 457.4M637.3 446.8L632.7 457.4M112.5 457.4L111.2 468.1M627.7 468.1L629.3 464.7M632.7 457.4L629.3 464.7M111.2 468.1L110.5 478.7M627.7 468.1L622.2 478.7M110.5 478.7L110.7 489.4M616 489.4L618.7 484.8M622.2 478.7L618.7 484.8M110.7 489.4L111.5 500M616 489.4L609.2 500M111.5 500L113.2 510.6M601.6 510.6L608 501.6M609.2 500L608 501.6M113.2 510.6L115.7 521.3M593.2 521.3L597.3 516.1M601.6 510.6L597.3 516.1M115.7 521.3L117.3 526.3M117.3 526.3L119.2 531.9M583.9 531.9L586.7 528.8M593.2 521.3L586.7 528.8M119.2 531.9L123.6 542.6M573.4 542.6L576 540M583.9 531.9L576 540M123.6 542.6L128 551.1M128 551.1L129.2 553.2M561.7 553.2L565.3 550M573.4 542.6L565.3 550M129.2 553.2L136 563.8M548.6 563.8L554.7 559M561.7 553.2L554.7 559M136 563.8L138.7 567.4M138.7 567.4L144.4 574.5M533.5 574.5L544 567.1M548.6 563.8L544 567.1M144.4 574.5L149.3 579.8M149.3 579.8L154.6 585.1M516.2 585.1L522.7 581.3M522.7 581.3L533.3 574.6M533.5 574.5L533.3 574.6M154.6 585.1L160 589.8M160 589.8L167.3 595.7M496 595.7L501.3 593M501.3 593L512 587.4M516.2 585.1L512 587.4M167.3 595.7L170.7 598.2M170.7 598.2L181.3 605.2M181.3 605.2L183.4 606.4M471.6 606.4L480 602.9M480 602.9L490.7 598.2M496 595.7L490.7 598.2M183.4 606.4L192 611M192 611L202.7 616M202.7 616L205 617M441 617L448 614.8M448 614.8L458.7 611.2M458.7 611.2L469.3 607.3M471.6 606.4L469.3 607.3M205 617L213.3 620.2M213.3 620.2L224 623.9M224 623.9L234.7 626.9M234.7 626.9L237.8 627.7M398.3 627.7L405.3 626.2M405.3 626.2L416 623.8M416 623.8L426.7 621.1M426.7 621.1L437.3 618.1M441 617L437.3 618.1M237.8 627.7L245.3 629.4M245.3 629.4L256 631.5M256 631.5L266.7 633.1M266.7 633.1L277.3 634.3M277.3 634.3L288 635.2M288 635.2L298.7 635.8M298.7 635.8L309.3 636.1M309.3 636.1L320 636.1M320 636.1L330.7 635.8M330.7 635.8L341.3 635.2M341.3 635.2L352 634.3M352 634.3L362.7 633.2M362.7 633.2L373.3 631.9M373.3 631.9L384 630.3M384 630.3L394.7 628.4M398.3 627.7L394.7 628.4" fill="none" stroke="#F03BB6" stroke-width="1" stroke-opacity="0.28" stroke-linecap="round"/>
<path d="M575.9 10.6L576 10.5M580.9 0L576 10.5M915.2 10.6L917.3 8.4M925.3 0L917.3 8.4M575.9 10.6L570.6 21.3M905.1 21.3L906.7 19.7M915.2 10.6L906.7 19.7M564.3 31.9L565.3 30.3M570.6 21.3L565.3 30.3M895.1 31.9L896 30.9M905.1 21.3L896 30.9M564.3 31.9L557.5 42.6M885.1 42.6L885.3 42.4M895.1 31.9L885.3 42.4M549.7 53.2L554.7 46.4M557.5 42.6L554.7 46.4M885.1 42.6L875.4 53.2M540.8 63.8L544 60M549.7 53.2L544 60M865.8 63.8L874.7 54M875.4 53.2L874.7 54M530.8 74.5L533.3 71.9M540.8 63.8L533.3 71.9M856.5 74.5L864 65.9M865.8 63.8L864 65.9M519.8 85.1L522.7 82.3M530.8 74.5L522.7 82.3M847.6 85.1L853.3 78.4M856.5 74.5L853.3 78.4M507.4 95.7L512 91.8M519.8 85.1L512 91.8M839 95.7L842.7 91.3M847.6 85.1L842.7 91.3M493.8 106.4L501.3 100.5M507.4 95.7L501.3 100.5M830.9 106.4L832 105M839 95.7L832 105M478.9 117L480 116.2M480 116.2L490.7 108.6M493.8 106.4L490.7 108.6M830.9 106.4L823.2 117M462.8 127.7L469.3 123.4M478.9 117L469.3 123.4M815.9 127.7L821.3 119.8M823.2 117L821.3 119.8M445.5 138.3L448 136.8M448 136.8L458.7 130.2M462.8 127.7L458.7 130.2M809.3 138.3L810.7 136.1M815.9 127.7L810.7 136.1M427.2 148.9L437.3 143M445.5 138.3L437.3 143M809.3 138.3L803 148.9M408 159.6L416 155.2M416 155.2L426.7 149.2M427.2 148.9L426.7 149.2M797.2 159.6L800 154.5M803 148.9L800 154.5M388.2 170.2L394.7 166.7M394.7 166.7L405.3 161M408 159.6L405.3 161M797.2 159.6L792 170.2M367.9 180.9L373.3 178M373.3 178L384 172.4M388.2 170.2L384 172.4M787.2 180.9L789.3 176.2M792 170.2L789.3 176.2M347.3 191.5L352 189.1M352 189.1L362.7 183.6M367.9 180.9L362.7 183.6M787.2 180.9L782.8 191.5M326.8 202.1L330.7 200.1M330.7 200.1L341.3 194.6M347.3 191.5L341.3 194.6M782.8 191.5L779 202.1M306.3 212.8L309.3 211.2M309.3 211.2L320 205.6M326.8 202.1L320 205.6M775.3 212.8L778.7 202.9M779 202.1L778.7 202.9M286.2 223.4L288 222.4M288 222.4L298.7 216.8M306.3 212.8L298.7 216.8M775.3 212.8L772 223.4M266.6 234L266.7 233.9M266.7 233.9L277.3 228.1M286.2 223.4L277.3 228.1M772 223.4L769 234M247.6 244.7L256 239.9M266.6 234L256 239.9M766.2 244.7L768 238M769 234L768 238M229.4 255.3L234.7 252.2M234.7 252.2L245.3 246M247.6 244.7L245.3 246M766.2 244.7L763.6 255.3M212 266L213.3 265.2M213.3 265.2L224 258.6M229.4 255.3L224 258.6M763.6 255.3L761.2 266M195.7 276.6L202.7 272M212 266L202.7 272M761.2 266L758.8 276.6M180.2 287.2L181.3 286.4M181.3 286.4L192 279.1M195.7 276.6L192 279.1M756.6 287.2L757.3 283.7M758.8 276.6L757.3 283.7M165.9 297.9L170.7 294.3M180.2 287.2L170.7 294.3M756.6 287.2L754.3 297.9M152.6 308.5L160 302.5M165.9 297.9L160 302.5M754.3 297.9L752.1 308.5M140.3 319.1L149.3 311.3M152.6 308.5L149.3 311.3M752.1 308.5L749.9 319.1M129.1 329.8L138.7 320.6M140.3 319.1L138.7 320.6M749.9 319.1L747.6 329.8M118.8 340.4L128 330.9M129.1 329.8L128 330.9M745.2 340.4L746.7 333.6M747.6 329.8L746.7 333.6M109.6 351.1L117.3 342.1M118.8 340.4L117.3 342.1M745.2 340.4L742.7 351.1M101.3 361.7L106.7 354.8M109.6 351.1L106.7 354.8M742.7 351.1L740 361.7M93.8 372.3L96 369.1M101.3 361.7L96 369.1M740 361.7L737.2 372.3M93.8 372.3L87.2 383M734.3 383L736 376.6M737.2 372.3L736 376.6M81.4 393.6L85.3 386.4M87.2 383L85.3 386.4M734.3 383L731.1 393.6M81.4 393.6L76.4 404.3M731.1 393.6L727.7 404.3M72.1 414.9L74.7 408.5M76.4 404.3L74.7 408.5M724.2 414.9L725.3 411.5M727.7 404.3L725.3 411.5M72.1 414.9L68.5 425.5M724.2 414.9L720.4 425.5M68.5 425.5L65.5 436.2M720.4 425.5L716.3 436.2M63.2 446.8L64 442.9M65.5 436.2L64 442.9M711.9 446.8L714.7 440.1M716.3 436.2L714.7 440.1M63.2 446.8L61.5 457.4M711.9 446.8L707.2 457.4M61.5 457.4L60.4 468.1M702.2 468.1L704 464.2M707.2 457.4L704 464.2M60.4 468.1L59.8 478.7M702.2 468.1L696.8 478.7M59.8 478.7L59.9 489.4M691 489.4L693.3 485M696.8 478.7L693.3 485M59.9 489.4L60.6 500M691 489.4L684.7 500M60.6 500L61.8 510.6M678 510.6L682.7 503.2M684.7 500L682.7 503.2M61.8 510.6L63.7 521.3M670.6 521.3L672 519.3M678 510.6L672 519.3M63.7 521.3L64 522.6M64 522.6L66.2 531.9M670.6 521.3L662.6 531.9M66.2 531.9L69.4 542.6M654 542.6L661.3 533.6M662.6 531.9L661.3 533.6M69.4 542.6L73.3 553.2M644.5 553.2L650.7 546.3M654 542.6L650.7 546.3M73.3 553.2L74.7 556.4M74.7 556.4L78 563.8M634 563.8L640 557.8M644.5 553.2L640 557.8M78 563.8L83.5 574.5M622.4 574.5L629.3 568.2M634 563.8L629.3 568.2M83.5 574.5L85.3 577.5M85.3 577.5L90.1 585.1M609.5 585.1L618.7 577.7M622.4 574.5L618.7 577.7M90.1 585.1L96 593.3M96 593.3L97.8 595.7M595 595.7L597.3 594M597.3 594L608 586.2M609.5 585.1L608 586.2M97.8 595.7L106.7 606.2M106.7 606.2L106.9 606.4M578.5 606.4L586.7 601.2M595 595.7L586.7 601.2M106.9 606.4L117.3 616.7M117.3 616.7L117.6 617M559.7 617L565.3 613.9M565.3 613.9L576 607.9M578.5 606.4L576 607.9M117.6 617L128 625.7M128 625.7L130.7 627.7M537.6 627.7L544 624.8M544 624.8L554.7 619.6M559.7 617L554.7 619.6M130.7 627.7L138.7 633.3M138.7 633.3L146.7 638.3M511.5 638.3L512 638.1M512 638.1L522.7 634M522.7 634L533.3 629.6M537.6 627.7L533.3 629.6M146.7 638.3L149.3 639.9M149.3 639.9L160 645.5M160 645.5L167.2 648.9M479.4 648.9L480 648.7M480 648.7L490.7 645.4M490.7 645.4L501.3 641.9M511.5 638.3L501.3 641.9M167.2 648.9L170.7 650.4M170.7 650.4L181.3 654.7M181.3 654.7L192 658.4M192 658.4L195.8 659.6M437.5 659.6L448 657.2M448 657.2L458.7 654.6M458.7 654.6L469.3 651.8M479.4 648.9L469.3 651.8M195.8 659.6L202.7 661.6M202.7 661.6L213.3 664.3M213.3 664.3L224 666.6M224 666.6L234.7 668.5M234.7 668.5L245.3 670.1M245.3 670.1L245.7 670.2M371.9 670.2L373.3 670.1M373.3 670.1L384 668.8M384 668.8L394.7 667.3M394.7 667.3L405.3 665.6M405.3 665.6L416 663.8M416 663.8L426.7 661.8M426.7 661.8L437.3 659.7M437.5 659.6L437.3 659.7M245.7 670.2L256 671.4M256 671.4L266.7 672.4M266.7 672.4L277.3 673.2M277.3 673.2L288 673.7M288 673.7L298.7 673.9M298.7 673.9L309.3 673.9M309.3 673.9L320 673.8M320 673.8L330.7 673.4M330.7 673.4L341.3 672.8M341.3 672.8L352 672.1M352 672.1L362.7 671.2M371.9 670.2L362.7 671.2M955.2 936.2L960 935.7M960 935.7L970.7 935.3M970.7 935.3L981.3 935.7M981.3 935.7L986.4 936.2M910.1 946.8L917.3 944.2M917.3 944.2L928 941M928 941L938.7 938.6M938.7 938.6L949.3 936.8M955.2 936.2L949.3 936.8M986.4 936.2L992 936.8M992 936.8L1002.7 938.6M1002.7 938.6L1013.3 941.3M1013.3 941.3L1024 944.9M1024 944.9L1028.7 946.8M886.4 957.4L896 952.6M896 952.6L906.7 948M910.1 946.8L906.7 948M1028.7 946.8L1034.7 949.3M1034.7 949.3L1045.3 954.8M1045.3 954.8L1049.5 957.4M868.5 968.1L874.7 964.1M874.7 964.1L885.3 957.9M886.4 957.4L885.3 957.9M1049.5 957.4L1056 961.5M1056 961.5L1065 968.1M853.2 978.7L853.3 978.7M853.3 978.7L864 971M868.5 968.1L864 971M1065 968.1L1066.7 969.4M1066.7 969.4L1077.3 978.6M1077.3 978.6L1077.4 978.7M840.3 989.4L842.7 987.3M853.2 978.7L842.7 987.3M1077.4 978.7L1087.8 989.4M828.6 1000L832 996.7M840.3 989.4L832 996.7M1087.8 989.4L1088 989.6M1088 989.6L1096.8 1000" fill="none" stroke="#F03BB6" stroke-width="1" stroke-opacity="0.28" stroke-linecap="round"/>
<path d="M499.3 0L493.1 10.6M992.1 10.6L1002.7 0.1M1002.8 0L1002.7 0.1M486.1 21.3L490.7 14.3M493.1 10.6L490.7 14.3M981.8 21.3L992 10.8M992.1 10.6L992 10.8M478.4 31.9L480 29.7M486.1 21.3L480 29.7M971.8 31.9L981.3 21.8M981.8 21.3L981.3 21.8M478.4 31.9L469.9 42.6M962.2 42.6L970.7 33.2M971.8 31.9L970.7 33.2M460.7 53.2L469.3 43.3M469.9 42.6L469.3 43.3M952.8 53.2L960 45.1M962.2 42.6L960 45.1M450.6 63.8L458.7 55.4M460.7 53.2L458.7 55.4M944 63.8L949.3 57.4M952.8 53.2L949.3 57.4M439.6 74.5L448 66.4M450.6 63.8L448 66.4M935.5 74.5L938.7 70.5M944 63.8L938.7 70.5M427.7 85.1L437.3 76.5M439.6 74.5L437.3 76.5M927.5 85.1L928 84.4M935.5 74.5L928 84.4M414.8 95.7L416 94.7M416 94.7L426.7 85.9M427.7 85.1L426.7 85.9M927.5 85.1L919.8 95.7M400.9 106.4L405.3 103M414.8 95.7L405.3 103M912.5 106.4L917.3 99.4M919.8 95.7L917.3 99.4M386.1 117L394.7 110.9M400.9 106.4L394.7 110.9M905.8 117L906.7 115.6M912.5 106.4L906.7 115.6M370.4 127.7L373.3 125.7M373.3 125.7L384 118.4M386.1 117L384 118.4M905.8 117L899.3 127.7M353.9 138.3L362.7 132.7M370.4 127.7L362.7 132.7M893.4 138.3L896 133.7M899.3 127.7L896 133.7M336.6 148.9L341.3 146M341.3 146L352 139.4M353.9 138.3L352 139.4M893.4 138.3L887.8 148.9M318.6 159.6L320 158.8M320 158.8L330.7 152.4M336.6 148.9L330.7 152.4M882.6 159.6L885.3 154.1M887.8 148.9L885.3 154.1M300.2 170.2L309.3 165M318.6 159.6L309.3 165M882.6 159.6L877.9 170.2M281.4 180.9L288 177.2M288 177.2L298.7 171.1M300.2 170.2L298.7 171.1M873.5 180.9L874.7 178.1M877.9 170.2L874.7 178.1M262.5 191.5L266.7 189.2M266.7 189.2L277.3 183.2M281.4 180.9L277.3 183.2M873.5 180.9L869.4 191.5M243.5 202.1L245.3 201.1M245.3 201.1L256 195.1M262.5 191.5L256 195.1M869.4 191.5L865.8 202.1M224.7 212.8L234.7 207.1M243.5 202.1L234.7 207.1M862.4 212.8L864 207.8M865.8 202.1L864 207.8M206.3 223.4L213.3 219.3M213.3 219.3L224 213.2M224.7 212.8L224 213.2M862.4 212.8L859.2 223.4M188.3 234L192 231.8M192 231.8L202.7 225.5M206.3 223.4L202.7 225.5M859.2 223.4L856.4 234M171 244.7L181.3 238.3M188.3 234L181.3 238.3M856.4 234L853.8 244.7M154.5 255.3L160 251.7M160 251.7L170.7 244.9M171 244.7L170.7 244.9M851.4 255.3L853.3 247.2M853.8 244.7L853.3 247.2M138.9 266L149.3 258.8M154.5 255.3L149.3 258.8M851.4 255.3L849.2 266M124.2 276.6L128 273.8M128 273.8L138.7 266.1M138.9 266L138.7 266.1M849.2 266L847.1 276.6M110.5 287.2L117.3 281.8M124.2 276.6L117.3 281.8M847.1 276.6L845.1 287.2M97.9 297.9L106.7 290.4M110.5 287.2L106.7 290.4M845.1 287.2L843.2 297.9M86.3 308.5L96 299.6M97.9 297.9L96 299.6M841.2 308.5L842.7 300.4M843.2 297.9L842.7 300.4M75.9 319.1L85.3 309.5M86.3 308.5L85.3 309.5M841.2 308.5L839.2 319.1M66.3 329.8L74.7 320.4M75.9 319.1L74.7 320.4M839.2 319.1L837.1 329.8M57.7 340.4L64 332.6M66.3 329.8L64 332.6M837.1 329.8L834.9 340.4M50.1 351.1L53.3 346.5M57.7 340.4L53.3 346.5M834.9 340.4L832.5 351.1M50.1 351.1L43.4 361.7M830 361.7L832 353.3M832.5 351.1L832 353.3M37.4 372.3L42.7 362.9M43.4 361.7L42.7 362.9M830 361.7L827.2 372.3M37.4 372.3L32.2 383M827.2 372.3L824.2 383M27.6 393.6L32 383.4M32.2 383L32 383.4M821 393.6L821.3 392.5M824.2 383L821.3 392.5M27.6 393.6L23.8 404.3M821 393.6L817.5 404.3M20.5 414.9L21.3 412.3M23.8 404.3L21.3 412.3M817.5 404.3L813.7 414.9M20.5 414.9L17.9 425.5M809.6 425.5L810.7 422.7M813.7 414.9L810.7 422.7M17.9 425.5L15.8 436.2M809.6 425.5L805.3 436.2M15.8 436.2L14.2 446.8M805.3 436.2L800.6 446.8M14.2 446.8L13.1 457.4M795.7 457.4L800 448.1M800.6 446.8L800 448.1M13.1 457.4L12.5 468.1M795.7 457.4L790.5 468.1M12.5 468.1L12.3 478.7M785.1 478.7L789.3 470.3M790.5 468.1L789.3 470.3M12.3 478.7L12.6 489.4M785.1 478.7L779.3 489.4M12.6 489.4L13.4 500M773.2 500L778.7 490.4M779.3 489.4L778.7 490.4M13.4 500L14.6 510.6M766.8 510.6L768 508.6M773.2 500L768 508.6M14.6 510.6L16.3 521.3M766.8 510.6L760 521.3M16.3 521.3L18.4 531.9M752.9 531.9L757.3 525.3M760 521.3L757.3 525.3M1591.3 531.9L1600 528.5M18.4 531.9L21 542.6M745.2 542.6L746.7 540.6M752.9 531.9L746.7 540.6M1568.4 542.6L1578.7 537.9M1578.7 537.9L1589.3 532.9M1591.3 531.9L1589.3 532.9M21 542.6L21.3 543.7M21.3 543.7L24.1 553.2M745.2 542.6L737.1 553.2M1549.7 553.2L1557.3 548.9M1557.3 548.9L1568 542.8M1568.4 542.6L1568 542.8M24.1 553.2L27.8 563.8M728.3 563.8L736 554.5M737.1 553.2L736 554.5M1536 563.8L1546.7 555.5M1549.7 553.2L1546.7 555.5M27.8 563.8L32 574.4M32 574.4L32 574.5M718.9 574.5L725.3 567.2M728.3 563.8L725.3 567.2M1527.1 574.5L1536 563.8M1536 563.8L1536 563.8M32 574.5L36.9 585.1M708.5 585.1L714.7 578.8M718.9 574.5L714.7 578.8M1522.8 585.1L1525.3 579M1527.1 574.5L1525.3 579M36.9 585.1L42.5 595.7M697.2 595.7L704 589.4M708.5 585.1L704 589.4M1522.8 585.1L1522.1 595.7M42.5 595.7L42.7 596.1M42.7 596.1L48.8 606.4M684.6 606.4L693.3 599.1M697.2 595.7L693.3 599.1M1522.1 595.7L1524.1 606.4M48.8 606.4L53.3 613.1M53.3 613.1L56 617M670.6 617L672 616M672 616L682.7 607.9M684.6 606.4L682.7 607.9M1524.1 606.4L1525.3 609.4M1525.3 609.4L1528 617M56 617L64 627.3M64 627.3L64.4 627.7M654.7 627.7L661.3 623.4M670.6 617L661.3 623.4M1528 617L1533.2 627.7M64.4 627.7L74 638.3M636.4 638.3L640 636.3M640 636.3L650.7 630.1M654.7 627.7L650.7 630.1M1533.2 627.7L1536 632.3M1536 632.3L1539.2 638.3M74 638.3L74.7 639M74.7 639L85.1 648.9M615.3 648.9L618.7 647.3M618.7 647.3L629.3 642M636.4 638.3L629.3 642M1539.2 638.3L1545.7 648.9M85.1 648.9L85.3 649M85.3 649L96 657.7M96 657.7L98.5 659.6M590.3 659.6L597.3 656.7M597.3 656.7L608 652.2M615.3 648.9L608 652.2M1545.7 648.9L1546.7 650.3M1546.7 650.3L1552.4 659.6M98.5 659.6L106.7 665.2M106.7 665.2L114.7 670.2M560.1 670.2L565.3 668.5M565.3 668.5L576 664.9M576 664.9L586.7 661M590.3 659.6L586.7 661M1552.4 659.6L1557.3 667.2M1557.3 667.2L1559.1 670.2M114.7 670.2L117.3 671.8M117.3 671.8L128 677.5M128 677.5L135.2 680.9M522.8 680.9L533.3 678.1M533.3 678.1L544 675.1M544 675.1L554.7 671.9M560.1 670.2L554.7 671.9M1559.1 670.2L1565.9 680.9M135.2 680.9L138.7 682.5M138.7 682.5L149.3 686.8M149.3 686.8L160 690.6M160 690.6L162.9 691.5M474.5 691.5L480 690.4M480 690.4L490.7 688.3M490.7 688.3L501.3 686M501.3 686L512 683.5M512 683.5L522.7 680.9M522.8 680.9L522.7 680.9M1565.9 680.9L1568 684M1568 684L1572.7 691.5M162.9 691.5L170.7 693.9M170.7 693.9L181.3 696.7M181.3 696.7L192 699.2M192 699.2L202.7 701.3M202.7 701.3L207.3 702.1M405.4 702.1L416 700.8M416 700.8L426.7 699.3M426.7 699.3L437.3 697.8M437.3 697.8L448 696.1M448 696.1L458.7 694.4M458.7 694.4L469.3 692.5M474.5 691.5L469.3 692.5M1572.7 691.5L1578.7 700.9M1578.7 700.9L1579.4 702.1M207.3 702.1L213.3 703.1M213.3 703.1L224 704.6M224 704.6L234.7 705.9M234.7 705.9L245.3 706.9M245.3 706.9L256 707.7M256 707.7L266.7 708.3M266.7 708.3L277.3 708.7M277.3 708.7L288 708.9M288 708.9L298.7 708.9M298.7 708.9L309.3 708.8M309.3 708.8L320 708.6M320 708.6L330.7 708.2M330.7 708.2L341.3 707.7M341.3 707.7L352 707.1M352 707.1L362.7 706.3M362.7 706.3L373.3 705.4M373.3 705.4L384 704.4M384 704.4L394.7 703.3M394.7 703.3L405.3 702.1M405.4 702.1L405.3 702.1M1579.4 702.1L1585.9 712.8M1585.9 712.8L1589.3 718.1M1589.3 718.1L1592.5 723.4M1592.5 723.4L1599 734M1599 734L1600 735.5M970.4 840.4L970.7 840.4M970.7 840.4L981.3 839.4M981.3 839.4L992 839M992 839L1002.7 839.1M1002.7 839.1L1013.3 839.9M1013.3 839.9L1017.5 840.4M923.9 851.1L928 849.7M928 849.7L938.7 846.5M938.7 846.5L949.3 843.9M949.3 843.9L960 841.8M970.4 840.4L960 841.8M1017.5 840.4L1024 841.2M1024 841.2L1034.7 843.2M1034.7 843.2L1045.3 845.9M1045.3 845.9L1056 849.5M1056 849.5L1060.1 851.1M898 861.7L906.7 857.6M906.7 857.6L917.3 853.4M923.9 851.1L917.3 853.4M1060.1 851.1L1066.7 853.8M1066.7 853.8L1077.3 859M1077.3 859L1082.1 861.7M878.3 872.3L885.3 868.1M885.3 868.1L896 862.6M898 861.7L896 862.6M1082.1 861.7L1088 865.2M1088 865.2L1098.4 872.3M861.9 883L864 881.4M864 881.4L874.7 874.4M878.3 872.3L874.7 874.4M1098.4 872.3L1098.7 872.5M1098.7 872.5L1109.3 881.2M1109.3 881.2L1111.3 883M847.8 893.6L853.3 889.1M861.9 883L853.3 889.1M1111.3 883L1120 891.2M1120 891.2L1122.3 893.6M835.3 904.3L842.7 897.7M847.8 893.6L842.7 897.7M1122.3 893.6L1130.7 902.8M1130.7 902.8L1131.9 904.3M823.9 914.9L832 907.2M835.3 904.3L832 907.2M1131.9 904.3L1140.3 914.9M813.6 925.5L821.3 917.4M823.9 914.9L821.3 917.4M1140.3 914.9L1141.3 916.2M1141.3 916.2L1147.9 925.5M804.1 936.2L810.7 928.6M813.6 925.5L810.7 928.6M1147.9 925.5L1152 931.7M1152 931.7L1154.8 936.2M795.1 946.8L800 940.8M804.1 936.2L800 940.8M1154.8 936.2L1161.1 946.8M786.7 957.4L789.3 953.9M795.1 946.8L789.3 953.9M1161.1 946.8L1162.7 949.6M1162.7 949.6L1166.8 957.4M786.7 957.4L778.8 968.1M1166.8 957.4L1172.2 968.1M771.2 978.7L778.7 968.2M778.8 968.1L778.7 968.2M1172.2 968.1L1173.3 970.4M1173.3 970.4L1177.1 978.7M764 989.4L768 983.4M771.2 978.7L768 983.4M1177.1 978.7L1181.8 989.4M757.1 1000L757.3 999.6M764 989.4L757.3 999.6M1181.8 989.4L1184 994.6M1184 994.6L1186.2 1000" fill="none" stroke="#F03BB6" stroke-width="1" stroke-opacity="0.29" stroke-linecap="round"/>
<path d="M425.8 10.6L426.7 9.3M433.1 0L426.7 9.3M1048.5 10.6L1056 3.9M1060.5 0L1056 3.9M425.8 10.6L417.8 21.3M1037.1 21.3L1045.3 13.5M1048.5 10.6L1045.3 13.5M409 31.9L416 23.5M417.8 21.3L416 23.5M1026.2 31.9L1034.7 23.6M1037.1 21.3L1034.7 23.6M399.6 42.6L405.3 36.1M409 31.9L405.3 36.1M1016 42.6L1024 34.2M1026.2 31.9L1024 34.2M389.3 53.2L394.7 47.7M399.6 42.6L394.7 47.7M1006.3 53.2L1013.3 45.5M1016 42.6L1013.3 45.5M378.1 63.8L384 58.2M389.3 53.2L384 58.2M997.2 63.8L1002.7 57.4M1006.3 53.2L1002.7 57.4M366.1 74.5L373.3 68.1M378.1 63.8L373.3 68.1M988.7 74.5L992 70.4M997.2 63.8L992 70.4M353.2 85.1L362.7 77.3M366.1 74.5L362.7 77.3M980.7 85.1L981.3 84.3M988.7 74.5L981.3 84.3M339.3 95.7L341.3 94.2M341.3 94.2L352 86M353.2 85.1L352 86M980.7 85.1L973.3 95.7M324.6 106.4L330.7 102M339.3 95.7L330.7 102M966.4 106.4L970.7 99.8M973.3 95.7L970.7 99.8M309 117L309.3 116.8M309.3 116.8L320 109.6M324.6 106.4L320 109.6M966.4 106.4L960.1 117M292.6 127.7L298.7 123.8M309 117L298.7 123.8M954.1 127.7L960 117.1M960.1 117L960 117.1M275.4 138.3L277.3 137.1M277.3 137.1L288 130.6M292.6 127.7L288 130.6M948.8 138.3L949.3 137.4M954.1 127.7L949.3 137.4M257.6 148.9L266.7 143.5M275.4 138.3L266.7 143.5M948.8 138.3L944 148.9M239.1 159.6L245.3 156M245.3 156L256 149.8M257.6 148.9L256 149.8M944 148.9L939.7 159.6M220.2 170.2L224 168.1M224 168.1L234.7 162.1M239.1 159.6L234.7 162.1M935.8 170.2L938.7 162.4M939.7 159.6L938.7 162.4M201.1 180.9L202.7 180M202.7 180L213.3 174.1M220.2 170.2L213.3 174.1M935.8 170.2L932.4 180.9M181.8 191.5L192 185.9M201.1 180.9L192 185.9M932.4 180.9L929.5 191.5M162.7 202.1L170.7 197.7M170.7 197.7L181.3 191.8M181.8 191.5L181.3 191.8M927 202.1L928 197.9M929.5 191.5L928 197.9M143.8 212.8L149.3 209.6M149.3 209.6L160 203.6M162.7 202.1L160 203.6M927 202.1L924.9 212.8M125.4 223.4L128 221.9M128 221.9L138.7 215.7M143.8 212.8L138.7 215.7M924.9 212.8L923.2 223.4M107.8 234L117.3 228.2M125.4 223.4L117.3 228.2M923.2 223.4L922 234M90.9 244.7L96 241.4M96 241.4L106.7 234.7M107.8 234L106.7 234.7M922 234L921.2 244.7M75.3 255.3L85.3 248.4M90.9 244.7L85.3 248.4M921.2 244.7L920.7 255.3M60.6 266L64 263.5M64 263.5L74.7 255.7M75.3 255.3L74.7 255.7M920.7 255.3L920.6 266M47.3 276.6L53.3 271.7M60.6 266L53.3 271.7M920.6 266L920.9 276.6M35.2 287.2L42.7 280.6M47.3 276.6L42.7 280.6M920.9 276.6L921.5 287.2M24.4 297.9L32 290.3M35.2 287.2L32 290.3M921.5 287.2L922.4 297.9M14.8 308.5L21.3 301.2M24.4 297.9L21.3 301.2M922.4 297.9L923.6 308.5M6.3 319.1L10.7 313.6M14.8 308.5L10.7 313.6M923.6 308.5L925.1 319.1M6.3 319.1L0 328.2M925.1 319.1L926.8 329.8M926.8 329.8L928 336.1M928 336.1L928.8 340.4M928.8 340.4L931 351.1M931 351.1L933.4 361.7M933.4 361.7L935.9 372.3M935.9 372.3L938.6 383M938.6 383L938.7 383.4M938.7 383.4L941.3 393.6M941.3 393.6L944.1 404.3M944.1 404.3L946.9 414.9M946.9 414.9L949.3 424.7M949.3 424.7L949.5 425.5M949.5 425.5L952.1 436.2M952.1 436.2L954.4 446.8M954.4 446.8L956.1 457.4M956.1 457.4L957.2 468.1M1572.7 468.1L1578.7 467M1578.7 467L1589.3 464.9M1589.3 464.9L1600 462.7M957.2 468.1L957.2 478.7M1508.5 478.7L1514.7 477.9M1514.7 477.9L1525.3 476.4M1525.3 476.4L1536 474.7M1536 474.7L1546.7 473M1546.7 473L1557.3 471.1M1557.3 471.1L1568 469M1572.7 468.1L1568 469M957.2 478.7L955.8 489.4M1395.1 489.4L1397.3 489.3M1397.3 489.3L1408 488.7M1408 488.7L1418.7 488.1M1418.7 488.1L1429.3 487.4M1429.3 487.4L1440 486.6M1440 486.6L1450.7 485.6M1450.7 485.6L1461.3 484.6M1461.3 484.6L1472 483.5M1472 483.5L1482.7 482.2M1482.7 482.2L1493.3 480.9M1493.3 480.9L1504 479.4M1508.5 478.7L1504 479.4M955.8 489.4L952.4 500M1116 500L1120 499.4M1120 499.4L1130.7 498.1M1130.7 498.1L1141.3 496.9M1141.3 496.9L1152 496M1152 496L1162.7 495.2M1162.7 495.2L1173.3 494.5M1173.3 494.5L1184 494M1184 494L1194.7 493.6M1194.7 493.6L1205.3 493.3M1205.3 493.3L1216 493M1216 493L1226.7 492.8M1226.7 492.8L1237.3 492.7M1237.3 492.7L1248 492.6M1248 492.6L1258.7 492.5M1258.7 492.5L1269.3 492.4M1269.3 492.4L1280 492.3M1280 492.3L1290.7 492.2M1290.7 492.2L1301.3 492.1M1301.3 492.1L1312 492M1312 492L1322.7 491.9M1322.7 491.9L1333.3 491.7M1333.3 491.7L1344 491.4M1344 491.4L1354.7 491.1M1354.7 491.1L1365.3 490.8M1365.3 490.8L1376 490.4M1376 490.4L1386.7 489.9M1395.1 489.4L1386.7 489.9M946.9 510.6L949.3 505.8M952.4 500L949.3 505.8M1074.8 510.6L1077.3 509.8M1077.3 509.8L1088 506.5M1088 506.5L1098.7 503.7M1098.7 503.7L1109.3 501.3M1116 500L1109.3 501.3M946.9 510.6L939.3 521.3M1055.4 521.3L1056 520.9M1056 520.9L1066.7 514.7M1074.8 510.6L1066.7 514.7M930.7 531.9L938.7 522M939.3 521.3L938.7 522M1045 531.9L1045.3 531.6M1055.4 521.3L1045.3 531.6M921.3 542.6L928 534.8M930.7 531.9L928 534.8M1045 531.9L1039.4 542.6M911.8 553.2L917.3 546.8M921.3 542.6L917.3 546.8M1039.4 542.6L1036.5 553.2M902.3 563.8L906.7 558.7M911.8 553.2L906.7 558.7M1036.5 553.2L1035.1 563.8M892.9 574.5L896 570.8M902.3 563.8L896 570.8M1034.2 574.5L1034.7 568.4M1035.1 563.8L1034.7 568.4M883.7 585.1L885.3 583.1M892.9 574.5L885.3 583.1M1034.2 574.5L1033.3 585.1M874.6 595.7L874.7 595.5M883.7 585.1L874.7 595.5M1033.3 585.1L1032 595.7M874.6 595.7L865.5 606.4M1032 595.7L1030 606.4M0 611.1L3.1 617M856.3 617L864 608.2M865.5 606.4L864 608.2M1030 606.4L1026.9 617M3.1 617L9.1 627.7M846.7 627.7L853.3 620.4M856.3 617L853.3 620.4M1022 627.7L1024 623.5M1026.9 617L1024 623.5M9.1 627.7L10.7 630.3M10.7 630.3L15.8 638.3M836.3 638.3L842.7 631.9M846.7 627.7L842.7 631.9M1022 627.7L1014.7 638.3M15.8 638.3L21.3 646.2M21.3 646.2L23.3 648.9M824.5 648.9L832 642.4M836.3 638.3L832 642.4M1004.2 648.9L1013.3 639.8M1014.7 638.3L1013.3 639.8M23.3 648.9L31.9 659.6M810.5 659.6L810.7 659.4M810.7 659.4L821.3 651.6M824.5 648.9L821.3 651.6M989.7 659.6L992 658M992 658L1002.7 650.1M1004.2 648.9L1002.7 650.1M31.9 659.6L32 659.8M32 659.8L41.6 670.2M792.9 670.2L800 666.4M810.5 659.6L800 666.4M970.7 670.2L970.7 670.2M970.7 670.2L981.3 664.3M989.7 659.6L981.3 664.3M41.6 670.2L42.7 671.3M42.7 671.3L52.7 680.9M769 680.9L778.7 677.1M778.7 677.1L789.3 672.1M792.9 670.2L789.3 672.1M947.5 680.9L949.3 680M949.3 680L960 675.1M970.7 670.2L960 675.1M52.7 680.9L53.3 681.4M53.3 681.4L64 690.1M64 690.1L66 691.5M735.5 691.5L736 691.4M736 691.4L746.7 688.4M746.7 688.4L757.3 685.1M757.3 685.1L768 681.3M769 680.9L768 681.3M922.4 691.5L928 689M928 689L938.7 684.5M947.5 680.9L938.7 684.5M66 691.5L74.7 697.6M74.7 697.6L81.9 702.1M688.7 702.1L693.3 701.2M693.3 701.2L704 699M704 699L714.7 696.7M714.7 696.7L725.3 694.1M735.5 691.5L725.3 694.1M898.9 702.1L906.7 698.2M906.7 698.2L917.3 693.6M922.4 691.5L917.3 693.6M81.9 702.1L85.3 704.2M85.3 704.2L96 710M96 710L101.9 712.8M626.3 712.8L629.3 712.3M629.3 712.3L640 710.7M640 710.7L650.7 709M650.7 709L661.3 707.1M661.3 707.1L672 705.3M672 705.3L682.7 703.3M688.7 702.1L682.7 703.3M879 712.8L885.3 708.9M885.3 708.9L896 703.4M898.9 702.1L896 703.4M101.9 712.8L106.7 715M106.7 715L117.3 719.4M117.3 719.4L128 723.2M128 723.2L128.7 723.4M547.8 723.4L554.7 722.5M554.7 722.5L565.3 721.2M565.3 721.2L576 719.9M576 719.9L586.7 718.4M586.7 718.4L597.3 717M597.3 717L608 715.5M608 715.5L618.7 713.9M626.3 712.8L618.7 713.9M863 723.4L864 722.6M864 722.6L874.7 715.3M879 712.8L874.7 715.3M128.7 723.4L138.7 726.5M138.7 726.5L149.3 729.4M149.3 729.4L160 731.9M160 731.9L170.7 734M447.8 734L448 734M448 734L458.7 733M458.7 733L469.3 732M469.3 732L480 730.9M480 730.9L490.7 729.8M490.7 729.8L501.3 728.7M501.3 728.7L512 727.5M512 727.5L522.7 726.3M522.7 726.3L533.3 725.1M533.3 725.1L544 723.8M547.8 723.4L544 723.8M850.2 734L853.3 731M863 723.4L853.3 731M1302.8 734L1312 731.9M1312 731.9L1322.7 730.2M1322.7 730.2L1333.3 729.1M1333.3 729.1L1344 728.5M1344 728.5L1354.7 728.6M1354.7 728.6L1365.3 729.1M1365.3 729.1L1376 730.1M1376 730.1L1386.7 731.6M1386.7 731.6L1397.3 733.6M1397.3 733.6L1399.2 734M170.7 734L170.7 734M170.7 734L181.3 735.9M181.3 735.9L192 737.4M192 737.4L202.7 738.8M202.7 738.8L213.3 739.9M213.3 739.9L224 740.8M224 740.8L234.7 741.5M234.7 741.5L245.3 742M245.3 742L256 742.4M256 742.4L266.7 742.7M266.7 742.7L277.3 742.8M277.3 742.8L288 742.8M288 742.8L298.7 742.7M298.7 742.7L309.3 742.5M309.3 742.5L320 742.3M320 742.3L330.7 741.9M330.7 741.9L341.3 741.5M341.3 741.5L352 741M352 741L362.7 740.4M362.7 740.4L373.3 739.8M373.3 739.8L384 739.1M384 739.1L394.7 738.4M394.7 738.4L405.3 737.6M405.3 737.6L416 736.7M416 736.7L426.7 735.9M426.7 735.9L437.3 734.9M447.8 734L437.3 734.9M839.6 744.7L842.7 741.1M850.2 734L842.7 741.1M1276.4 744.7L1280 742.7M1280 742.7L1290.7 737.9M1290.7 737.9L1301.3 734.4M1302.8 734L1301.3 734.4M1399.2 734L1408 736.1M1408 736.1L1418.7 739.1M1418.7 739.1L1429.3 742.7M1429.3 742.7L1434.3 744.7M830.3 755.3L832 753.1M839.6 744.7L832 753.1M1262.4 755.3L1269.3 749.4M1276.4 744.7L1269.3 749.4M1434.3 744.7L1440 746.9M1440 746.9L1450.7 751.6M1450.7 751.6L1457.9 755.3M830.3 755.3L822.1 766M1253.9 766L1258.7 759.5M1262.4 755.3L1258.7 759.5M1457.9 755.3L1461.3 757M1461.3 757L1472 763.1M1472 763.1L1476.6 766M814.8 776.6L821.3 767M822.1 766L821.3 767M1253.9 766L1248.4 776.6M1476.6 766L1482.7 769.8M1482.7 769.8L1492.5 776.6M807.8 787.2L810.7 782.5M814.8 776.6L810.7 782.5M1245 787.2L1248 777.7M1248.4 776.6L1248 777.7M1492.5 776.6L1493.3 777.2M1493.3 777.2L1504 785.2M1504 785.2L1506.4 787.2M807.8 787.2L801.3 797.9M1245 787.2L1243.1 797.9M1506.4 787.2L1514.7 794M1514.7 794L1519 797.9M795 808.5L800 799.9M801.3 797.9L800 799.9M1243.1 797.9L1242.1 808.5M1519 797.9L1525.3 803.5M1525.3 803.5L1530.6 808.5M789 819.1L789.3 818.5M795 808.5L789.3 818.5M1242.1 808.5L1241.9 819.1M1530.6 808.5L1536 813.6M1536 813.6L1541.5 819.1M789 819.1L783.2 829.8M1241.9 819.1L1242.2 829.8M1541.5 819.1L1546.7 824.4M1546.7 824.4L1551.7 829.8M777.6 840.4L778.7 838.1M783.2 829.8L778.7 838.1M1242.2 829.8L1242.9 840.4M1551.7 829.8L1557.3 835.7M1557.3 835.7L1561.5 840.4M777.6 840.4L772 851.1M1242.9 840.4L1244 851.1M1561.5 840.4L1568 847.6M1568 847.6L1571 851.1M766.5 861.7L768 858.7M772 851.1L768 858.7M1244 851.1L1245.3 861.7M1571 851.1L1578.7 859.8M1578.7 859.8L1580.2 861.7M766.5 861.7L761.2 872.3M1245.3 861.7L1246.8 872.3M1580.2 861.7L1589.2 872.3M755.9 883L757.3 879.9M761.2 872.3L757.3 879.9M1246.8 872.3L1248 879.9M1248 879.9L1248.5 883M1589.2 872.3L1589.3 872.4M1589.3 872.4L1598 883M755.9 883L750.7 893.6M1248.5 883L1250.3 893.6M1598 883L1600 885.4M745.5 904.3L746.7 901.7M750.7 893.6L746.7 901.7M1250.3 893.6L1252.1 904.3M745.5 904.3L740.4 914.9M1252.1 904.3L1254.1 914.9M735.3 925.5L736 924M740.4 914.9L736 924M1254.1 914.9L1256.1 925.5M735.3 925.5L730.3 936.2M1256.1 925.5L1258.1 936.2M730.3 936.2L725.3 946.8M1258.1 936.2L1258.7 939.5M1258.7 939.5L1260.1 946.8M720.5 957.4L725.3 946.8M725.3 946.8L725.3 946.8M1260.1 946.8L1262.2 957.4M720.5 957.4L715.6 968.1M1262.2 957.4L1264.2 968.1M710.8 978.7L714.7 970M715.6 968.1L714.7 970M1264.2 968.1L1266.3 978.7M710.8 978.7L706 989.4M1266.3 978.7L1268.3 989.4M701.2 1000L704 993.7M706 989.4L704 993.7M1268.3 989.4L1269.3 994.4M1269.3 994.4L1270.4 1000" fill="none" stroke="#F03BB6" stroke-width="1" stroke-opacity="0.30" stroke-linecap="round"/>
<path d="M362.2 10.6L362.7 10M370.5 0L362.7 10M1095.9 10.6L1098.7 8.4M1098.7 8.4L1109.3 0.4M1109.8 0L1109.3 0.4M362.2 10.6L353.1 21.3M1082.9 21.3L1088 17M1095.9 10.6L1088 17M343.1 31.9L352 22.5M353.1 21.3L352 22.5M1070.9 31.9L1077.3 26.1M1082.9 21.3L1077.3 26.1M332.4 42.6L341.3 33.8M343.1 31.9L341.3 33.8M1059.7 42.6L1066.7 35.8M1070.9 31.9L1066.7 35.8M320.7 53.2L330.7 44.2M332.4 42.6L330.7 44.2M1049.2 53.2L1056 46.3M1059.7 42.6L1056 46.3M308.1 63.8L309.3 62.8M309.3 62.8L320 53.8M320.7 53.2L320 53.8M1039.6 63.8L1045.3 57.4M1049.2 53.2L1045.3 57.4M294.6 74.5L298.7 71.3M308.1 63.8L298.7 71.3M1030.6 74.5L1034.7 69.6M1039.6 63.8L1034.7 69.6M280 85.1L288 79.3M294.6 74.5L288 79.3M1022.4 85.1L1024 83.1M1030.6 74.5L1024 83.1M264.4 95.7L266.7 94.2M266.7 94.2L277.3 86.9M280 85.1L277.3 86.9M1022.4 85.1L1014.8 95.7M247.7 106.4L256 101.2M264.4 95.7L256 101.2M1007.9 106.4L1013.3 98.1M1014.8 95.7L1013.3 98.1M230.1 117L234.7 114.3M234.7 114.3L245.3 107.9M247.7 106.4L245.3 107.9M1001.7 117L1002.7 115.4M1007.9 106.4L1002.7 115.4M211.4 127.7L213.3 126.6M213.3 126.6L224 120.5M230.1 117L224 120.5M1001.7 117L996.1 127.7M191.7 138.3L192 138.2M192 138.2L202.7 132.5M211.4 127.7L202.7 132.5M991.1 138.3L992 136.4M996.1 127.7L992 136.4M171.1 148.9L181.3 143.7M191.7 138.3L181.3 143.7M991.1 138.3L986.6 148.9M149.6 159.6L160 154.5M160 154.5L170.7 149.1M171.1 148.9L170.7 149.1M986.6 148.9L982.8 159.6M127.3 170.2L128 169.9M128 169.9L138.7 164.8M138.7 164.8L149.3 159.7M149.6 159.6L149.3 159.7M979.5 170.2L981.3 164.5M982.8 159.6L981.3 164.5M104.4 180.9L106.7 179.9M106.7 179.9L117.3 174.9M127.3 170.2L117.3 174.9M979.5 170.2L976.9 180.9M81 191.5L85.3 189.6M85.3 189.6L96 184.8M104.4 180.9L96 184.8M976.9 180.9L974.8 191.5M57.5 202.1L64 199.2M64 199.2L74.7 194.4M81 191.5L74.7 194.4M974.8 191.5L973.3 202.1M34.3 212.8L42.7 208.9M42.7 208.9L53.3 204.1M57.5 202.1L53.3 204.1M973.3 202.1L972.3 212.8M11.7 223.4L21.3 218.8M21.3 218.8L32 213.9M34.3 212.8L32 213.9M972.3 212.8L972 223.4M0 229.1L10.7 223.9M11.7 223.4L10.7 223.9M972 223.4L972.1 234M972.1 234L972.9 244.7M972.9 244.7L974.2 255.3M974.2 255.3L976.2 266M976.2 266L978.7 276.6M978.7 276.6L981.3 284.9M981.3 284.9L982 287.2M982 287.2L985.9 297.9M985.9 297.9L990.7 308.5M990.7 308.5L992 311.1M992 311.1L996.2 319.1M996.2 319.1L1002.7 329.7M1002.7 329.7L1002.8 329.8M1002.8 329.8L1010.2 340.4M1010.2 340.4L1013.3 344.4M1013.3 344.4L1019 351.1M1019 351.1L1024 356.5M1024 356.5L1029.3 361.7M1029.3 361.7L1034.7 366.7M1034.7 366.7L1041.3 372.3M1041.3 372.3L1045.3 375.5M1045.3 375.5L1055.8 383M1055.8 383L1056 383.2M1056 383.2L1066.7 390M1066.7 390L1073.2 393.6M1073.2 393.6L1077.3 395.9M1077.3 395.9L1088 401.3M1088 401.3L1094.8 404.3M1094.8 404.3L1098.7 406M1098.7 406L1109.3 410.4M1109.3 410.4L1120 414.1M1120 414.1L1122.3 414.9M1122.3 414.9L1130.7 417.7M1130.7 417.7L1141.3 421M1141.3 421L1152 423.9M1152 423.9L1158.7 425.5M1595.6 425.5L1600 424.6M1158.7 425.5L1162.7 426.5M1162.7 426.5L1173.3 429.1M1173.3 429.1L1184 431.4M1184 431.4L1194.7 433.5M1194.7 433.5L1205.3 435.4M1205.3 435.4L1210.2 436.2M1539.6 436.2L1546.7 435.1M1546.7 435.1L1557.3 433.2M1557.3 433.2L1568 431.3M1568 431.3L1578.7 429.2M1578.7 429.2L1589.3 426.9M1595.6 425.5L1589.3 426.9M1210.2 436.2L1216 437.2M1216 437.2L1226.7 438.9M1226.7 438.9L1237.3 440.5M1237.3 440.5L1248 441.9M1248 441.9L1258.7 443.1M1258.7 443.1L1269.3 444.2M1269.3 444.2L1280 445.2M1280 445.2L1290.7 446.1M1290.7 446.1L1300.8 446.8M1449.2 446.8L1450.7 446.7M1450.7 446.7L1461.3 445.9M1461.3 445.9L1472 445M1472 445L1482.7 443.9M1482.7 443.9L1493.3 442.8M1493.3 442.8L1504 441.5M1504 441.5L1514.7 440.1M1514.7 440.1L1525.3 438.5M1525.3 438.5L1536 436.8M1539.6 436.2L1536 436.8M1300.8 446.8L1301.3 446.8M1301.3 446.8L1312 447.6M1312 447.6L1322.7 448.2M1322.7 448.2L1333.3 448.7M1333.3 448.7L1344 449.1M1344 449.1L1354.7 449.4M1354.7 449.4L1365.3 449.5M1365.3 449.5L1376 449.6M1376 449.6L1386.7 449.5M1386.7 449.5L1397.3 449.3M1397.3 449.3L1408 449M1408 449L1418.7 448.6M1418.7 448.6L1429.3 448.1M1429.3 448.1L1440 447.5M1449.2 446.8L1440 447.5M0 695.8L5.6 702.1M5.6 702.1L10.7 707.6M10.7 707.6L15.9 712.8M15.9 712.8L21.3 717.8M21.3 717.8L27.9 723.4M27.9 723.4L32 726.6M32 726.6L42.3 734M42.3 734L42.7 734.2M42.7 734.2L53.3 740.9M53.3 740.9L60.3 744.7M60.3 744.7L64 746.6M64 746.6L74.7 751.5M74.7 751.5L84.2 755.3M84.2 755.3L85.3 755.7M85.3 755.7L96 759.4M96 759.4L106.7 762.6M106.7 762.6L117.3 765.3M117.3 765.3L120.7 766M120.7 766L128 767.6M128 767.6L138.7 769.5M138.7 769.5L149.3 771.1M149.3 771.1L160 772.5M160 772.5L170.7 773.6M170.7 773.6L181.3 774.6M181.3 774.6L192 775.3M192 775.3L202.7 775.9M202.7 775.9L213.3 776.4M213.3 776.4L221.1 776.6M295.7 776.6L298.7 776.5M298.7 776.5L309.3 776.3M309.3 776.3L320 776M320 776L330.7 775.7M330.7 775.7L341.3 775.4M341.3 775.4L352 775.1M352 775.1L362.7 774.8M362.7 774.8L373.3 774.4M373.3 774.4L384 774.1M384 774.1L394.7 773.8M394.7 773.8L405.3 773.5M405.3 773.5L416 773.2M416 773.2L426.7 773M426.7 773L437.3 772.8M437.3 772.8L448 772.6M448 772.6L458.7 772.6M458.7 772.6L469.3 772.5M469.3 772.5L480 772.6M480 772.6L490.7 772.7M490.7 772.7L501.3 773M501.3 773L512 773.3M512 773.3L522.7 773.8M522.7 773.8L533.3 774.5M533.3 774.5L544 775.3M544 775.3L554.7 776.4M554.7 776.4L556.7 776.6M221.1 776.6L224 776.7M224 776.7L234.7 776.9M234.7 776.9L245.3 777M245.3 777L256 777.1M256 777.1L266.7 777M266.7 777L277.3 776.9M277.3 776.9L288 776.7M295.7 776.6L288 776.7M556.7 776.6L565.3 777.7M565.3 777.7L576 779.4M576 779.4L586.7 781.4M586.7 781.4L597.3 783.9M597.3 783.9L608 787M608 787L608.6 787.2M608.6 787.2L618.7 791M618.7 791L629.3 796M629.3 796L632.8 797.9M632.8 797.9L640 802.5M640 802.5L647.7 808.5M647.7 808.5L650.7 811.4M650.7 811.4L657.5 819.1M657.5 819.1L661.3 825M661.3 825L664.1 829.8M664.1 829.8L668.7 840.4M668.7 840.4L671.7 851.1M671.7 851.1L672 853M672 853L673.4 861.7M673.4 861.7L674.3 872.3M674.3 872.3L674.4 883M674.4 883L673.9 893.6M673.9 893.6L672.9 904.3M671.5 914.9L672 910.8M672.9 904.3L672 910.8M671.5 914.9L669.7 925.5M669.7 925.5L667.6 936.2M1420.4 936.2L1429.3 932.1M1429.3 932.1L1440 929.6M1440 929.6L1450.7 929.1M1450.7 929.1L1461.3 930.3M1461.3 930.3L1472 932.9M1472 932.9L1481 936.2M667.6 936.2L665.2 946.8M1407.1 946.8L1408 945.8M1408 945.8L1418.7 937.1M1420.4 936.2L1418.7 937.1M1481 936.2L1482.7 936.8M1482.7 936.8L1493.3 941.8M1493.3 941.8L1502.2 946.8M665.2 946.8L662.7 957.4M1407.1 946.8L1399.3 957.4M1502.2 946.8L1504 947.8M1504 947.8L1514.7 954.8M1514.7 954.8L1518.2 957.4M659.9 968.1L661.3 962.6M662.7 957.4L661.3 962.6M1393.9 968.1L1397.3 960.7M1399.3 957.4L1397.3 960.7M1518.2 957.4L1525.3 962.7M1525.3 962.7L1531.9 968.1M659.9 968.1L657 978.7M1393.9 968.1L1390 978.7M1531.9 968.1L1536 971.4M1536 971.4L1544.3 978.7M657 978.7L654 989.4M1390 978.7L1387 989.4M1544.3 978.7L1546.7 980.8M1546.7 980.8L1555.7 989.4M654 989.4L650.8 1000M1385 1000L1386.7 990.8M1387 989.4L1386.7 990.8M1555.7 989.4L1557.3 990.9M1557.3 990.9L1566.5 1000" fill="none" stroke="#F03BB6" stroke-width="1" stroke-opacity="0.31" stroke-linecap="round"/>
<path d="M294.2 10.6L298.7 5.9M304.1 0L298.7 5.9M1138.9 10.6L1141.3 9M1141.3 9L1152 2.1M1155.4 0L1152 2.1M283.3 21.3L288 16.8M294.2 10.6L288 16.8M1124 21.3L1130.7 16.4M1138.9 10.6L1130.7 16.4M271.4 31.9L277.3 26.7M283.3 21.3L277.3 26.7M1110.3 31.9L1120 24.3M1124 21.3L1120 24.3M258.3 42.6L266.7 35.8M271.4 31.9L266.7 35.8M1097.9 42.6L1098.7 41.9M1098.7 41.9L1109.3 32.7M1110.3 31.9L1109.3 32.7M243.8 53.2L245.3 52.2M245.3 52.2L256 44.3M258.3 42.6L256 44.3M1086.4 53.2L1088 51.7M1097.9 42.6L1088 51.7M228 63.8L234.7 59.4M243.8 53.2L234.7 59.4M1075.9 63.8L1077.3 62.4M1086.4 53.2L1077.3 62.4M210.6 74.5L213.3 72.9M213.3 72.9L224 66.4M228 63.8L224 66.4M1066.5 74.5L1066.7 74.2M1075.9 63.8L1066.7 74.2M191.4 85.1L192 84.8M192 84.8L202.7 79M210.6 74.5L202.7 79M1066.5 74.5L1057.7 85.1M169.9 95.7L170.7 95.4M170.7 95.4L181.3 90.2M191.4 85.1L181.3 90.2M1049.8 95.7L1056 87.4M1057.7 85.1L1056 87.4M145.3 106.4L149.3 104.8M149.3 104.8L160 100.2M169.9 95.7L160 100.2M1042.7 106.4L1045.3 102.5M1049.8 95.7L1045.3 102.5M116.3 117L117.3 116.7M117.3 116.7L128 113M128 113L138.7 109M145.3 106.4L138.7 109M1042.7 106.4L1036.4 117M0 122.8L10.7 127.4M10.7 127.4L11.7 127.7M76 127.7L85.3 125.7M85.3 125.7L96 123M96 123L106.7 120M116.3 117L106.7 120M1030.8 127.7L1034.7 120.4M1036.4 117L1034.7 120.4M11.7 127.7L21.3 130M21.3 130L32 131.2M32 131.2L42.7 131.5M42.7 131.5L53.3 130.9M53.3 130.9L64 129.7M64 129.7L74.7 128M76 127.7L74.7 128M1030.8 127.7L1025.9 138.3M1021.7 148.9L1024 143.1M1025.9 138.3L1024 143.1M1021.7 148.9L1018.1 159.6M1018.1 159.6L1015.3 170.2M1013.1 180.9L1013.3 180.1M1015.3 170.2L1013.3 180.1M1013.1 180.9L1011.6 191.5M1011.6 191.5L1010.8 202.1M1010.8 202.1L1010.6 212.8M1010.6 212.8L1011.2 223.4M1011.2 223.4L1012.4 234M1012.4 234L1013.3 238.8M1013.3 238.8L1014.4 244.7M1014.4 244.7L1017.1 255.3M1017.1 255.3L1020.7 266M1020.7 266L1024 273.9M1024 273.9L1025.1 276.6M1025.1 276.6L1030.4 287.2M1030.4 287.2L1034.7 294.4M1034.7 294.4L1036.8 297.9M1036.8 297.9L1044.2 308.5M1044.2 308.5L1045.3 309.9M1045.3 309.9L1053 319.1M1053 319.1L1056 322.4M1056 322.4L1063.2 329.8M1063.2 329.8L1066.7 333.1M1066.7 333.1L1075.1 340.4M1075.1 340.4L1077.3 342.3M1077.3 342.3L1088 350.4M1088 350.4L1089 351.1M1089 351.1L1098.7 357.6M1098.7 357.6L1105.4 361.7M1105.4 361.7L1109.3 364M1109.3 364L1120 369.8M1120 369.8L1125.1 372.3M1125.1 372.3L1130.7 375M1130.7 375L1141.3 379.9M1141.3 379.9L1149 383M1149 383L1152 384.2M1152 384.2L1162.7 388.3M1162.7 388.3L1173.3 391.9M1173.3 391.9L1178.7 393.6M1178.7 393.6L1184 395.3M1184 395.3L1194.7 398.5M1194.7 398.5L1205.3 401.3M1205.3 401.3L1216 403.9M1216 403.9L1217.7 404.3M1561.4 404.3L1568 403M1568 403L1578.7 400.6M1578.7 400.6L1589.3 398.1M1589.3 398.1L1600 395.5M1217.7 404.3L1226.7 406.4M1226.7 406.4L1237.3 408.6M1237.3 408.6L1248 410.6M1248 410.6L1258.7 412.5M1258.7 412.5L1269.3 414.1M1269.3 414.1L1275.4 414.9M1499.1 414.9L1504 414.3M1504 414.3L1514.7 412.8M1514.7 412.8L1525.3 411.1M1525.3 411.1L1536 409.3M1536 409.3L1546.7 407.3M1546.7 407.3L1557.3 405.2M1561.4 404.3L1557.3 405.2M1275.4 414.9L1280 415.6M1280 415.6L1290.7 417M1290.7 417L1301.3 418.2M1301.3 418.2L1312 419.2M1312 419.2L1322.7 420.1M1322.7 420.1L1333.3 420.9M1333.3 420.9L1344 421.5M1344 421.5L1354.7 422M1354.7 422L1365.3 422.3M1365.3 422.3L1376 422.5M1376 422.5L1386.7 422.5M1386.7 422.5L1397.3 422.5M1397.3 422.5L1408 422.3M1408 422.3L1418.7 421.9M1418.7 421.9L1429.3 421.5M1429.3 421.5L1440 420.8M1440 420.8L1450.7 420.1M1450.7 420.1L1461.3 419.2M1461.3 419.2L1472 418.2M1472 418.2L1482.7 417M1482.7 417L1493.3 415.7M1499.1 414.9L1493.3 415.7M0 776.2L0.5 776.6M0.5 776.6L10.7 783.6M10.7 783.6L16.7 787.2M16.7 787.2L21.3 789.8M21.3 789.8L32 794.9M32 794.9L39.4 797.9M39.4 797.9L42.7 799.1M42.7 799.1L53.3 802.6M53.3 802.6L64 805.4M64 805.4L74.7 807.7M74.7 807.7L79.4 808.5M79.4 808.5L85.3 809.5M85.3 809.5L96 811M96 811L106.7 812.2M106.7 812.2L117.3 813.1M117.3 813.1L128 813.7M128 813.7L138.7 814.2M138.7 814.2L149.3 814.5M149.3 814.5L160 814.7M160 814.7L170.7 814.7M170.7 814.7L181.3 814.7M181.3 814.7L192 814.6M192 814.6L202.7 814.4M202.7 814.4L213.3 814.2M213.3 814.2L224 813.9M224 813.9L234.7 813.6M234.7 813.6L245.3 813.3M245.3 813.3L256 813M256 813L266.7 812.6M266.7 812.6L277.3 812.3M277.3 812.3L288 812M288 812L298.7 811.7M298.7 811.7L309.3 811.4M309.3 811.4L320 811.1M320 811.1L330.7 810.9M330.7 810.9L341.3 810.8M341.3 810.8L352 810.7M352 810.7L362.7 810.6M362.7 810.6L373.3 810.7M373.3 810.7L384 810.8M384 810.8L394.7 811M394.7 811L405.3 811.3M405.3 811.3L416 811.7M416 811.7L426.7 812.3M426.7 812.3L437.3 813M437.3 813L448 813.9M448 813.9L458.7 815M458.7 815L469.3 816.3M469.3 816.3L480 817.9M480 817.9L487.1 819.1M487.1 819.1L490.7 819.8M490.7 819.8L501.3 822.1M501.3 822.1L512 824.8M512 824.8L522.7 827.9M522.7 827.9L528.2 829.8M528.2 829.8L533.3 831.7M533.3 831.7L544 836.3M544 836.3L552.2 840.4M552.2 840.4L554.7 841.9M554.7 841.9L565.3 848.9M565.3 848.9L568.2 851.1M568.2 851.1L576 857.9M576 857.9L579.8 861.7M579.8 861.7L586.7 870.1M586.7 870.1L588.3 872.3M588.3 872.3L594.5 883M594.5 883L597.3 889.2M597.3 889.2L599.1 893.6M599.1 893.6L602.5 904.3M602.5 904.3L604.8 914.9M604.8 914.9L606.3 925.5M606.3 925.5L607.1 936.2M607.1 936.2L607.3 946.8M607.3 946.8L606.9 957.4M606.9 957.4L606.2 968.1M606.2 968.1L605 978.7M605 978.7L603.6 989.4M603.6 989.4L601.8 1000" fill="none" stroke="#F03BB6" stroke-width="1" stroke-opacity="0.32" stroke-linecap="round"/>
<path d="M38.8 0L42.7 8.9M42.7 8.9L43.6 10.6M201.4 10.6L202.7 9.8M202.7 9.8L213.3 2.4M216.6 0L213.3 2.4M1180.5 10.6L1184 8.6M1184 8.6L1194.7 2.9M1200.5 0L1194.7 2.9M43.6 10.6L51 21.3M183 21.3L192 16.3M201.4 10.6L192 16.3M1162.9 21.3L1173.3 14.8M1180.5 10.6L1173.3 14.8M51 21.3L53.3 23.9M53.3 23.9L62.7 31.9M159.6 31.9L160 31.7M160 31.7L170.7 27.2M170.7 27.2L181.3 22.2M183 21.3L181.3 22.2M1147.1 31.9L1152 28.5M1152 28.5L1162.7 21.4M1162.9 21.3L1162.7 21.4M62.7 31.9L64 32.8M64 32.8L74.7 38.1M74.7 38.1L85.3 41.4M85.3 41.4L92.6 42.6M117.9 42.6L128 41M128 41L138.7 38.6M138.7 38.6L149.3 35.5M159.6 31.9L149.3 35.5M1133 42.6L1141.3 36.2M1147.1 31.9L1141.3 36.2M92.6 42.6L96 43.1M96 43.1L106.7 43.4M106.7 43.4L117.3 42.7M117.9 42.6L117.3 42.7M1120.3 53.2L1130.7 44.5M1133 42.6L1130.7 44.5M1108.8 63.8L1109.3 63.3M1109.3 63.3L1120 53.5M1120.3 53.2L1120 53.5M1098.5 74.5L1098.7 74.3M1108.8 63.8L1098.7 74.3M1098.5 74.5L1089.2 85.1M1080.8 95.7L1088 86.6M1089.2 85.1L1088 86.6M1073.4 106.4L1077.3 100.7M1080.8 95.7L1077.3 100.7M1073.4 106.4L1066.9 117M1061.1 127.7L1066.7 117.3M1066.9 117L1066.7 117.3M1061.1 127.7L1056.2 138.3M1052 148.9L1056 138.8M1056.2 138.3L1056 138.8M1052 148.9L1048.6 159.6M1048.6 159.6L1046.1 170.2M1044.2 180.9L1045.3 174.7M1046.1 170.2L1045.3 174.7M1044.2 180.9L1043.1 191.5M1043.1 191.5L1042.8 202.1M1042.8 202.1L1043.3 212.8M1043.3 212.8L1044.6 223.4M1044.6 223.4L1045.3 227.1M1045.3 227.1L1046.7 234M1046.7 234L1049.6 244.7M1049.6 244.7L1053.5 255.3M1053.5 255.3L1056 260.9M1056 260.9L1058.4 266M1058.4 266L1064.3 276.6M1064.3 276.6L1066.7 280.3M1066.7 280.3L1071.3 287.2M1071.3 287.2L1077.3 295.1M1077.3 295.1L1079.6 297.9M1079.6 297.9L1088 307.1M1088 307.1L1089.4 308.5M1089.4 308.5L1098.7 317.2M1098.7 317.2L1100.8 319.1M1100.8 319.1L1109.3 326.1M1109.3 326.1L1114.1 329.8M1114.1 329.8L1120 334M1120 334L1129.9 340.4M1129.9 340.4L1130.7 340.9M1130.7 340.9L1141.3 347.2M1141.3 347.2L1148.6 351.1M1148.6 351.1L1152 352.9M1152 352.9L1162.7 358M1162.7 358L1171.1 361.7M1171.1 361.7L1173.3 362.7M1173.3 362.7L1184 367M1184 367L1194.7 370.9M1194.7 370.9L1199 372.3M1593.7 372.3L1600 370.5M1199 372.3L1205.3 374.5M1205.3 374.5L1216 377.8M1216 377.8L1226.7 380.8M1226.7 380.8L1235.2 383M1551.7 383L1557.3 381.7M1557.3 381.7L1568 379.2M1568 379.2L1578.7 376.5M1578.7 376.5L1589.3 373.6M1593.7 372.3L1589.3 373.6M1235.2 383L1237.3 383.5M1237.3 383.5L1248 386.1M1248 386.1L1258.7 388.4M1258.7 388.4L1269.3 390.4M1269.3 390.4L1280 392.3M1280 392.3L1288.9 393.6M1493.4 393.6L1504 392.1M1504 392.1L1514.7 390.4M1514.7 390.4L1525.3 388.5M1525.3 388.5L1536 386.4M1536 386.4L1546.7 384.1M1551.7 383L1546.7 384.1M1288.9 393.6L1290.7 393.9M1290.7 393.9L1301.3 395.4M1301.3 395.4L1312 396.8M1312 396.8L1322.7 397.9M1322.7 397.9L1333.3 398.8M1333.3 398.8L1344 399.6M1344 399.6L1354.7 400.2M1354.7 400.2L1365.3 400.7M1365.3 400.7L1376 401M1376 401L1386.7 401.1M1386.7 401.1L1397.3 401.1M1397.3 401.1L1408 400.9M1408 400.9L1418.7 400.5M1418.7 400.5L1429.3 400M1429.3 400L1440 399.4M1440 399.4L1450.7 398.5M1450.7 398.5L1461.3 397.6M1461.3 397.6L1472 396.4M1472 396.4L1482.7 395.1M1482.7 395.1L1493.3 393.6M1493.4 393.6L1493.3 393.6M266.6 851.1L266.7 851.1M266.7 851.1L277.3 850.5M277.3 850.5L288 850M288 850L298.7 849.6M298.7 849.6L309.3 849.3M309.3 849.3L320 849.2M320 849.2L330.7 849.1M330.7 849.1L341.3 849.2M341.3 849.2L352 849.4M352 849.4L362.7 849.8M362.7 849.8L373.3 850.4M373.3 850.4L383.4 851.1M157.4 861.7L160 861.4M160 861.4L170.7 860M170.7 860L181.3 858.8M181.3 858.8L192 857.6M192 857.6L202.7 856.4M202.7 856.4L213.3 855.4M213.3 855.4L224 854.4M224 854.4L234.7 853.4M234.7 853.4L245.3 852.6M245.3 852.6L256 851.8M266.6 851.1L256 851.8M383.4 851.1L384 851.1M384 851.1L394.7 852.1M394.7 852.1L405.3 853.4M405.3 853.4L416 854.9M416 854.9L426.7 856.7M426.7 856.7L437.3 858.8M437.3 858.8L448 861.4M448 861.4L449.3 861.7M88.7 872.3L96 871.1M96 871.1L106.7 869.3M106.7 869.3L117.3 867.5M117.3 867.5L128 865.9M128 865.9L138.7 864.3M138.7 864.3L149.3 862.8M157.4 861.7L149.3 862.8M449.3 861.7L458.7 864.5M458.7 864.5L469.3 868.1M469.3 868.1L479.8 872.3M39.9 883L42.7 882.3M42.7 882.3L53.3 879.7M53.3 879.7L64 877.3M64 877.3L74.7 875.1M74.7 875.1L85.3 873M88.7 872.3L85.3 873M479.8 872.3L480 872.4M480 872.4L490.7 877.8M490.7 877.8L499.5 883M9.3 893.6L10.7 893M10.7 893L21.3 888.8M21.3 888.8L32 885.3M39.9 883L32 885.3M499.5 883L501.3 884.2M501.3 884.2L512 892.2M512 892.2L513.7 893.6M9.3 893.6L0 899M513.7 893.6L522.7 902.7M522.7 902.7L524.2 904.3M524.2 904.3L532 914.9M532 914.9L533.3 917M533.3 917L538.1 925.5M538.1 925.5L542.7 936.2M542.7 936.2L544 940.2M544 940.2L546 946.8M546 946.8L548.5 957.4M548.5 957.4L550.1 968.1M550.1 968.1L551.1 978.7M551.1 978.7L551.4 989.4M551.4 989.4L551.3 1000" fill="none" stroke="#F03BB6" stroke-width="1" stroke-opacity="0.32" stroke-linecap="round"/>
<path d="M1223.1 10.6L1226.7 9M1226.7 9L1237.3 4.4M1237.3 4.4L1248 0.2M1248.6 0L1248 0.2M1201.6 21.3L1205.3 19.3M1205.3 19.3L1216 13.9M1223.1 10.6L1216 13.9M1183.1 31.9L1184 31.3M1184 31.3L1194.7 25.1M1201.6 21.3L1194.7 25.1M1166.8 42.6L1173.3 38.1M1183.1 31.9L1173.3 38.1M1152.5 53.2L1162.7 45.5M1166.8 42.6L1162.7 45.5M1139.7 63.8L1141.3 62.4M1141.3 62.4L1152 53.6M1152.5 53.2L1152 53.6M1128.3 74.5L1130.7 72.2M1139.7 63.8L1130.7 72.2M1118.2 85.1L1120 83.2M1128.3 74.5L1120 83.2M1109.2 95.7L1109.3 95.6M1118.2 85.1L1109.3 95.6M1109.2 95.7L1101.4 106.4M1094.5 117L1098.7 110.5M1101.4 106.4L1098.7 110.5M1094.5 117L1088.5 127.7M1083.5 138.3L1088 128.8M1088.5 127.7L1088 128.8M1083.5 138.3L1079.3 148.9M1076 159.6L1077.3 155.4M1079.3 148.9L1077.3 155.4M1076 159.6L1073.6 170.2M1073.6 170.2L1072 180.9M1072 180.9L1071.2 191.5M1071.2 191.5L1071.3 202.1M1071.3 202.1L1072.3 212.8M1072.3 212.8L1074.2 223.4M1074.2 223.4L1077 234M1077 234L1077.3 234.9M1077.3 234.9L1080.8 244.7M1080.8 244.7L1085.7 255.3M1085.7 255.3L1088 259.5M1088 259.5L1091.7 266M1091.7 266L1098.7 276.2M1098.7 276.2L1099 276.6M1099 276.6L1107.5 287.2M1107.5 287.2L1109.3 289.2M1109.3 289.2L1117.7 297.9M1117.7 297.9L1120 300M1120 300L1129.7 308.5M1129.7 308.5L1130.7 309.3M1130.7 309.3L1141.3 317.4M1141.3 317.4L1143.8 319.1M1143.8 319.1L1152 324.6M1152 324.6L1160.6 329.8M1160.6 329.8L1162.7 331M1162.7 331L1173.3 336.8M1173.3 336.8L1180.6 340.4M1180.6 340.4L1184 342M1184 342L1194.7 346.8M1194.7 346.8L1205.2 351.1M1590.7 351.1L1600 348M1205.2 351.1L1205.3 351.2M1205.3 351.2L1216 355.1M1216 355.1L1226.7 358.7M1226.7 358.7L1236.6 361.7M1554.1 361.7L1557.3 360.9M1557.3 360.9L1568 358M1568 358L1578.7 354.9M1578.7 354.9L1589.3 351.6M1590.7 351.1L1589.3 351.6M1236.6 361.7L1237.3 361.9M1237.3 361.9L1248 364.9M1248 364.9L1258.7 367.6M1258.7 367.6L1269.3 370M1269.3 370L1280 372.1M1280 372.1L1280.8 372.3M1505.4 372.3L1514.7 370.6M1514.7 370.6L1525.3 368.5M1525.3 368.5L1536 366.2M1536 366.2L1546.7 363.6M1554.1 361.7L1546.7 363.6M1280.8 372.3L1290.7 374.2M1290.7 374.2L1301.3 375.9M1301.3 375.9L1312 377.4M1312 377.4L1322.7 378.8M1322.7 378.8L1333.3 379.9M1333.3 379.9L1344 380.8M1344 380.8L1354.7 381.5M1354.7 381.5L1365.3 382M1365.3 382L1376 382.3M1376 382.3L1386.7 382.5M1386.7 382.5L1397.3 382.5M1397.3 382.5L1408 382.3M1408 382.3L1418.7 382M1418.7 382L1429.3 381.4M1429.3 381.4L1440 380.7M1440 380.7L1450.7 379.8M1450.7 379.8L1461.3 378.7M1461.3 378.7L1472 377.5M1472 377.5L1482.7 376M1482.7 376L1493.3 374.4M1493.3 374.4L1504 372.6M1505.4 372.3L1504 372.6M283.2 893.6L288 893.3M288 893.3L298.7 892.8M298.7 892.8L309.3 892.6M309.3 892.6L320 892.6M320 892.6L330.7 892.8M330.7 892.8L341.3 893.3M341.3 893.3L344.8 893.6M207.4 904.3L213.3 903M213.3 903L224 901M224 901L234.7 899.1M234.7 899.1L245.3 897.5M245.3 897.5L256 896.1M256 896.1L266.7 894.9M266.7 894.9L277.3 894M283.2 893.6L277.3 894M344.8 893.6L352 894.2M352 894.2L362.7 895.4M362.7 895.4L373.3 896.9M373.3 896.9L384 898.8M384 898.8L394.7 901.2M394.7 901.2L405.3 904.1M405.3 904.1L406 904.3M169 914.9L170.7 914.3M170.7 914.3L181.3 911M181.3 911L192 908.1M192 908.1L202.7 905.4M207.4 904.3L202.7 905.4M406 904.3L416 907.7M416 907.7L426.7 912M426.7 912L432.9 914.9M142.4 925.5L149.3 922.4M149.3 922.4L160 918.1M169 914.9L160 918.1M432.9 914.9L437.3 917.2M437.3 917.2L448 923.7M448 923.7L450.6 925.5M122.8 936.2L128 933.1M128 933.1L138.7 927.3M142.4 925.5L138.7 927.3M450.6 925.5L458.7 931.9M458.7 931.9L463.3 936.2M108 946.8L117.3 939.9M122.8 936.2L117.3 939.9M463.3 936.2L469.3 942.6M469.3 942.6L472.8 946.8M96.7 957.4L106.7 948M108 946.8L106.7 948M472.8 946.8L480 957.2M480 957.2L480.1 957.4M88 968.1L96 958.2M96.7 957.4L96 958.2M480.1 957.4L485.6 968.1M81.3 978.7L85.3 972.2M88 968.1L85.3 972.2M485.6 968.1L489.8 978.7M81.3 978.7L76.2 989.4M489.8 978.7L490.7 981.8M490.7 981.8L492.8 989.4M72.2 1000L74.7 993.2M76.2 989.4L74.7 993.2M492.8 989.4L494.9 1000" fill="none" stroke="#F03BB6" stroke-width="1" stroke-opacity="0.33" stroke-linecap="round"/>
<path d="M1270.7 10.6L1280 7.5M1280 7.5L1290.7 4.4M1290.7 4.4L1301.3 1.5M1307.7 0L1301.3 1.5M1584.8 0L1589.3 0.8M1589.3 0.8L1600 2.8M1242.7 21.3L1248 19M1248 19L1258.7 14.8M1258.7 14.8L1269.3 11M1270.7 10.6L1269.3 11M1219.9 31.9L1226.7 28.5M1226.7 28.5L1237.3 23.6M1242.7 21.3L1237.3 23.6M1200.6 42.6L1205.3 39.8M1205.3 39.8L1216 33.9M1219.9 31.9L1216 33.9M1184.1 53.2L1194.7 46.2M1200.6 42.6L1194.7 46.2M1169.6 63.8L1173.3 61M1173.3 61L1184 53.2M1184.1 53.2L1184 53.2M1157 74.5L1162.7 69.6M1169.6 63.8L1162.7 69.6M1145.9 85.1L1152 79.1M1157 74.5L1152 79.1M1136.1 95.7L1141.3 90M1145.9 85.1L1141.3 90M1127.7 106.4L1130.7 102.5M1136.1 95.7L1130.7 102.5M1127.7 106.4L1120.3 117M1114 127.7L1120 117.6M1120.3 117L1120 117.6M1108.8 138.3L1109.3 137.3M1114 127.7L1109.3 137.3M1108.8 138.3L1104.5 148.9M1104.5 148.9L1101.3 159.6M1101.3 159.6L1099 170.2M1097.5 180.9L1098.7 172.1M1099 170.2L1098.7 172.1M1097.5 180.9L1097 191.5M1097 191.5L1097.5 202.1M1097.5 202.1L1098.7 211.2M1098.7 211.2L1098.9 212.8M1098.9 212.8L1101.3 223.4M1101.3 223.4L1104.8 234M1104.8 234L1109.3 244.5M1109.3 244.5L1109.4 244.7M1109.4 244.7L1115.2 255.3M1115.2 255.3L1120 262.6M1120 262.6L1122.3 266M1122.3 266L1130.7 276.3M1130.7 276.3L1130.9 276.6M1130.9 276.6L1141.1 287.2M1141.1 287.2L1141.3 287.4M1141.3 287.4L1152 296.8M1152 296.8L1153.3 297.9M1153.3 297.9L1162.7 305M1162.7 305L1167.7 308.5M1167.7 308.5L1173.3 312.2M1173.3 312.2L1184 318.5M1184 318.5L1185 319.1M1185 319.1L1194.7 324.3M1194.7 324.3L1205.3 329.5M1205.3 329.5L1206 329.8M1591.8 329.8L1600 326.6M1206 329.8L1216 334.1M1216 334.1L1226.7 338.3M1226.7 338.3L1232.4 340.4M1560.8 340.4L1568 338.1M1568 338.1L1578.7 334.6M1578.7 334.6L1589.3 330.7M1591.8 329.8L1589.3 330.7M1232.4 340.4L1237.3 342.2M1237.3 342.2L1248 345.6M1248 345.6L1258.7 348.8M1258.7 348.8L1267.6 351.1M1521.3 351.1L1525.3 350.2M1525.3 350.2L1536 347.5M1536 347.5L1546.7 344.6M1546.7 344.6L1557.3 341.5M1560.8 340.4L1557.3 341.5M1267.6 351.1L1269.3 351.6M1269.3 351.6L1280 354.1M1280 354.1L1290.7 356.3M1290.7 356.3L1301.3 358.3M1301.3 358.3L1312 360M1312 360L1322.7 361.5M1322.7 361.5L1324.7 361.7M1460.5 361.7L1461.3 361.6M1461.3 361.6L1472 360.2M1472 360.2L1482.7 358.7M1482.7 358.7L1493.3 356.9M1493.3 356.9L1504 354.9M1504 354.9L1514.7 352.6M1521.3 351.1L1514.7 352.6M1324.7 361.7L1333.3 362.7M1333.3 362.7L1344 363.8M1344 363.8L1354.7 364.6M1354.7 364.6L1365.3 365.2M1365.3 365.2L1376 365.6M1376 365.6L1386.7 365.8M1386.7 365.8L1397.3 365.8M1397.3 365.8L1408 365.6M1408 365.6L1418.7 365.2M1418.7 365.2L1429.3 364.6M1429.3 364.6L1440 363.8M1440 363.8L1450.7 362.8M1460.5 361.7L1450.7 362.8M234.4 957.4L234.7 957.3M234.7 957.3L245.3 954.4M245.3 954.4L256 952M256 952L266.7 950M266.7 950L277.3 948.6M277.3 948.6L288 947.5M288 947.5L298.7 947M298.7 947L309.3 947M309.3 947L320 947.5M320 947.5L330.7 948.5M330.7 948.5L341.3 950.1M341.3 950.1L352 952.4M352 952.4L362.7 955.3M362.7 955.3L368.6 957.4M207.1 968.1L213.3 965.3M213.3 965.3L224 961M234.4 957.4L224 961M368.6 957.4L373.3 959.3M373.3 959.3L384 964.4M384 964.4L390.5 968.1M188.2 978.7L192 976.3M192 976.3L202.7 970.3M207.1 968.1L202.7 970.3M390.5 968.1L394.7 970.9M394.7 970.9L404.6 978.7M174 989.4L181.3 983.6M188.2 978.7L181.3 983.6M404.6 978.7L405.3 979.3M405.3 979.3L414.7 989.4M162.9 1000L170.7 992.4M174 989.4L170.7 992.4M414.7 989.4L416 991.1M416 991.1L422.1 1000" fill="none" stroke="#F03BB6" stroke-width="1" stroke-opacity="0.34" stroke-linecap="round"/>
<path d="M1334.9 10.6L1344 9M1344 9L1354.7 7.4M1354.7 7.4L1365.3 6M1365.3 6L1376 4.8M1376 4.8L1386.7 4M1386.7 4L1397.3 3.3M1397.3 3.3L1408 2.8M1408 2.8L1418.7 2.6M1418.7 2.6L1429.3 2.5M1429.3 2.5L1440 2.7M1440 2.7L1450.7 3M1450.7 3L1461.3 3.6M1461.3 3.6L1472 4.3M1472 4.3L1482.7 5.2M1482.7 5.2L1493.3 6.3M1493.3 6.3L1504 7.6M1504 7.6L1514.7 9.1M1514.7 9.1L1524.6 10.6M1290.7 21.3L1301.3 18.2M1301.3 18.2L1312 15.5M1312 15.5L1322.7 13M1322.7 13L1333.3 10.9M1334.9 10.6L1333.3 10.9M1524.6 10.6L1525.3 10.7M1525.3 10.7L1536 12.5M1536 12.5L1546.7 14.5M1546.7 14.5L1557.3 16.8M1557.3 16.8L1568 19.2M1568 19.2L1576.7 21.3M1260.1 31.9L1269.3 28.4M1269.3 28.4L1280 24.6M1280 24.6L1290.7 21.3M1290.7 21.3L1290.7 21.3M1576.7 21.3L1578.7 21.8M1578.7 21.8L1589.3 24.6M1589.3 24.6L1600 27.6M1236.1 42.6L1237.3 42M1237.3 42L1248 37M1248 37L1258.7 32.5M1260.1 31.9L1258.7 32.5M1216.4 53.2L1226.7 47.4M1236.1 42.6L1226.7 47.4M1199.7 63.8L1205.3 60M1205.3 60L1216 53.4M1216.4 53.2L1216 53.4M1185.3 74.5L1194.7 67.4M1199.7 63.8L1194.7 67.4M1172.9 85.1L1173.3 84.7M1173.3 84.7L1184 75.6M1185.3 74.5L1184 75.6M1162.3 95.7L1162.7 95.2M1172.9 85.1L1162.7 95.2M1162.3 95.7L1153 106.4M1145.1 117L1152 107.7M1153 106.4L1152 107.7M1138.4 127.7L1141.3 123M1145.1 117L1141.3 123M1138.4 127.7L1132.9 138.3M1128.5 148.9L1130.7 143.6M1132.9 138.3L1130.7 143.6M1128.5 148.9L1125.1 159.6M1125.1 159.6L1122.8 170.2M1122.8 170.2L1121.5 180.9M1121.5 180.9L1121.2 191.5M1121.2 191.5L1122 202.1M1122 202.1L1123.8 212.8M1123.8 212.8L1126.8 223.4M1126.8 223.4L1130.7 233.3M1130.7 233.3L1131 234M1131 234L1136.3 244.7M1136.3 244.7L1141.3 252.6M1141.3 252.6L1143.1 255.3M1143.1 255.3L1151.4 266M1151.4 266L1152 266.6M1152 266.6L1161.5 276.6M1161.5 276.6L1162.7 277.7M1162.7 277.7L1173.3 287M1173.3 287L1173.5 287.2M1173.5 287.2L1184 295.1M1184 295.1L1188.1 297.9M1188.1 297.9L1194.7 302.1M1194.7 302.1L1205.3 308.3M1205.3 308.3L1205.6 308.5M1593.4 308.5L1600 305.5M1205.6 308.5L1216 313.9M1216 313.9L1226.7 318.8M1226.7 318.8L1227.4 319.1M1567.5 319.1L1568 318.9M1568 318.9L1578.7 314.8M1578.7 314.8L1589.3 310.3M1593.4 308.5L1589.3 310.3M1227.4 319.1L1237.3 323.3M1237.3 323.3L1248 327.3M1248 327.3L1255.4 329.8M1535.7 329.8L1536 329.7M1536 329.7L1546.7 326.4M1546.7 326.4L1557.3 322.8M1567.5 319.1L1557.3 322.8M1255.4 329.8L1258.7 330.9M1258.7 330.9L1269.3 334.1M1269.3 334.1L1280 337M1280 337L1290.7 339.5M1290.7 339.5L1295 340.4M1492.5 340.4L1493.3 340.2M1493.3 340.2L1504 338M1504 338L1514.7 335.5M1514.7 335.5L1525.3 332.7M1535.7 329.8L1525.3 332.7M1295 340.4L1301.3 341.7M1301.3 341.7L1312 343.7M1312 343.7L1322.7 345.4M1322.7 345.4L1333.3 346.9M1333.3 346.9L1344 348M1344 348L1354.7 349M1354.7 349L1365.3 349.7M1365.3 349.7L1376 350.1M1376 350.1L1386.7 350.3M1386.7 350.3L1397.3 350.3M1397.3 350.3L1408 350.1M1408 350.1L1418.7 349.7M1418.7 349.7L1429.3 349M1429.3 349L1440 348.1M1440 348.1L1450.7 347M1450.7 347L1461.3 345.7M1461.3 345.7L1472 344.1M1472 344.1L1482.7 342.3M1492.5 340.4L1482.7 342.3" fill="none" stroke="#F03BB6" stroke-width="1" stroke-opacity="0.35" stroke-linecap="round"/>
<path d="M1367 21.3L1376 20.3M1376 20.3L1386.7 19.5M1386.7 19.5L1397.3 18.8M1397.3 18.8L1408 18.4M1408 18.4L1418.7 18.3M1418.7 18.3L1429.3 18.4M1429.3 18.4L1440 18.7M1440 18.7L1450.7 19.3M1450.7 19.3L1461.3 20.1M1461.3 20.1L1472 21.1M1472 21.1L1474 21.3M1309.8 31.9L1312 31.3M1312 31.3L1322.7 28.7M1322.7 28.7L1333.3 26.5M1333.3 26.5L1344 24.5M1344 24.5L1354.7 22.9M1354.7 22.9L1365.3 21.5M1367 21.3L1365.3 21.5M1474 21.3L1482.7 22.3M1482.7 22.3L1493.3 23.7M1493.3 23.7L1504 25.4M1504 25.4L1514.7 27.3M1514.7 27.3L1525.3 29.4M1525.3 29.4L1536 31.8M1536 31.8L1536.4 31.9M1276.2 42.6L1280 41.2M1280 41.2L1290.7 37.5M1290.7 37.5L1301.3 34.2M1309.8 31.9L1301.3 34.2M1536.4 31.9L1546.7 34.5M1546.7 34.5L1557.3 37.4M1557.3 37.4L1568 40.6M1568 40.6L1574.1 42.6M1251.2 53.2L1258.7 49.7M1258.7 49.7L1269.3 45.2M1276.2 42.6L1269.3 45.2M1574.1 42.6L1578.7 44.1M1578.7 44.1L1589.3 48M1589.3 48L1600 52.2M1231 63.8L1237.3 60.2M1237.3 60.2L1248 54.7M1251.2 53.2L1248 54.7M1214.3 74.5L1216 73.3M1216 73.3L1226.7 66.4M1231 63.8L1226.7 66.4M1200.2 85.1L1205.3 81.1M1214.3 74.5L1205.3 81.1M1188.2 95.7L1194.7 89.8M1200.2 85.1L1194.7 89.8M1177.9 106.4L1184 100M1188.2 95.7L1184 100M1169.3 117L1173.3 112M1177.9 106.4L1173.3 112M1162.1 127.7L1162.7 126.9M1169.3 117L1162.7 126.9M1162.1 127.7L1156.2 138.3M1151.5 148.9L1152 147.9M1156.2 138.3L1152 147.9M1151.5 148.9L1148 159.6M1148 159.6L1145.7 170.2M1145.7 170.2L1144.5 180.9M1144.5 180.9L1144.4 191.5M1144.4 191.5L1145.5 202.1M1145.5 202.1L1147.8 212.8M1147.8 212.8L1151.3 223.4M1151.3 223.4L1152 225M1152 225L1156.2 234M1156.2 234L1162.5 244.7M1162.5 244.7L1162.7 245M1162.7 245L1170.3 255.3M1170.3 255.3L1173.3 258.8M1173.3 258.8L1180 266M1180 266L1184 269.8M1184 269.8L1191.8 276.6M1191.8 276.6L1194.7 278.9M1194.7 278.9L1205.3 286.6M1205.3 286.6L1206.1 287.2M1593.6 287.2L1600 283.6M1206.1 287.2L1216 293.4M1216 293.4L1223.9 297.9M1572.3 297.9L1578.7 294.9M1578.7 294.9L1589.3 289.5M1593.6 287.2L1589.3 289.5M1223.9 297.9L1226.7 299.4M1226.7 299.4L1237.3 304.6M1237.3 304.6L1246.1 308.5M1546.5 308.5L1546.7 308.4M1546.7 308.4L1557.3 304.3M1557.3 304.3L1568 299.8M1572.3 297.9L1568 299.8M1246.1 308.5L1248 309.3M1248 309.3L1258.7 313.4M1258.7 313.4L1269.3 317.1M1269.3 317.1L1275.7 319.1M1513.6 319.1L1514.7 318.8M1514.7 318.8L1525.3 315.7M1525.3 315.7L1536 312.2M1546.5 308.5L1536 312.2M1275.7 319.1L1280 320.4M1280 320.4L1290.7 323.3M1290.7 323.3L1301.3 325.9M1301.3 325.9L1312 328.1M1312 328.1L1321.5 329.8M1464.5 329.8L1472 328.6M1472 328.6L1482.7 326.5M1482.7 326.5L1493.3 324.3M1493.3 324.3L1504 321.7M1513.6 319.1L1504 321.7M1321.5 329.8L1322.7 330M1322.7 330L1333.3 331.6M1333.3 331.6L1344 332.9M1344 332.9L1354.7 334M1354.7 334L1365.3 334.7M1365.3 334.7L1376 335.3M1376 335.3L1386.7 335.5M1386.7 335.5L1397.3 335.5M1397.3 335.5L1408 335.3M1408 335.3L1418.7 334.8M1418.7 334.8L1429.3 334M1429.3 334L1440 333.1M1440 333.1L1450.7 331.8M1450.7 331.8L1461.3 330.3M1464.5 329.8L1461.3 330.3" fill="none" stroke="#F03BB6" stroke-width="1" stroke-opacity="0.36" stroke-linecap="round"/>
<path d="M1329.3 42.6L1333.3 41.7M1333.3 41.7L1344 39.6M1344 39.6L1354.7 37.8M1354.7 37.8L1365.3 36.4M1365.3 36.4L1376 35.2M1376 35.2L1386.7 34.4M1386.7 34.4L1397.3 33.8M1397.3 33.8L1408 33.5M1408 33.5L1418.7 33.5M1418.7 33.5L1429.3 33.7M1429.3 33.7L1440 34.2M1440 34.2L1450.7 35M1450.7 35L1461.3 36M1461.3 36L1472 37.3M1472 37.3L1482.7 38.9M1482.7 38.9L1493.3 40.7M1493.3 40.7L1502.9 42.6M1291.8 53.2L1301.3 50M1301.3 50L1312 46.9M1312 46.9L1322.7 44.1M1329.3 42.6L1322.7 44.1M1502.9 42.6L1504 42.8M1504 42.8L1514.7 45.2M1514.7 45.2L1525.3 47.9M1525.3 47.9L1536 51M1536 51L1543.2 53.2M1265.5 63.8L1269.3 62.1M1269.3 62.1L1280 57.6M1280 57.6L1290.7 53.6M1291.8 53.2L1290.7 53.6M1543.2 53.2L1546.7 54.4M1546.7 54.4L1557.3 58.1M1557.3 58.1L1568 62.3M1568 62.3L1571.5 63.8M1245.1 74.5L1248 72.8M1248 72.8L1258.7 67.1M1265.5 63.8L1258.7 67.1M1571.5 63.8L1578.7 67.1M1578.7 67.1L1589.3 72.4M1589.3 72.4L1593.3 74.5M1228.5 85.1L1237.3 79.2M1245.1 74.5L1237.3 79.2M1593.3 74.5L1600 78.4M1214.7 95.7L1216 94.6M1216 94.6L1226.7 86.4M1228.5 85.1L1226.7 86.4M1203.2 106.4L1205.3 104.3M1214.7 95.7L1205.3 104.3M1193.6 117L1194.7 115.8M1203.2 106.4L1194.7 115.8M1193.6 117L1185.7 127.7M1179.3 138.3L1184 130.5M1185.7 127.7L1184 130.5M1179.3 138.3L1174.3 148.9M1170.6 159.6L1173.3 151.7M1174.3 148.9L1173.3 151.7M1170.6 159.6L1168.2 170.2M1168.2 170.2L1167.1 180.9M1167.1 180.9L1167.2 191.5M1167.2 191.5L1168.6 202.1M1168.6 202.1L1171.3 212.8M1171.3 212.8L1173.3 218.1M1173.3 218.1L1175.4 223.4M1175.4 223.4L1181 234M1181 234L1184 238.4M1184 238.4L1188.4 244.7M1188.4 244.7L1194.7 252.1M1194.7 252.1L1197.6 255.3M1197.6 255.3L1205.3 262.8M1205.3 262.8L1208.9 266M1591.2 266L1600 259.7M1208.9 266L1216 271.5M1216 271.5L1223.1 276.6M1573.9 276.6L1578.7 273.8M1578.7 273.8L1589.3 267.2M1591.2 266L1589.3 267.2M1223.1 276.6L1226.7 278.9M1226.7 278.9L1237.3 285.3M1237.3 285.3L1240.7 287.2M1553 287.2L1557.3 285.2M1557.3 285.2L1568 279.8M1573.9 276.6L1568 279.8M1240.7 287.2L1248 290.9M1248 290.9L1258.7 295.9M1258.7 295.9L1263.5 297.9M1527.2 297.9L1536 294.5M1536 294.5L1546.7 290.1M1553 287.2L1546.7 290.1M1263.5 297.9L1269.3 300.2M1269.3 300.2L1280 304M1280 304L1290.7 307.3M1290.7 307.3L1295 308.5M1492.8 308.5L1493.3 308.4M1493.3 308.4L1504 305.5M1504 305.5L1514.7 302.2M1514.7 302.2L1525.3 298.6M1527.2 297.9L1525.3 298.6M1295 308.5L1301.3 310.2M1301.3 310.2L1312 312.7M1312 312.7L1322.7 314.8M1322.7 314.8L1333.3 316.6M1333.3 316.6L1344 318.1M1344 318.1L1353 319.1M1431.9 319.1L1440 318.3M1440 318.3L1450.7 316.9M1450.7 316.9L1461.3 315.2M1461.3 315.2L1472 313.2M1472 313.2L1482.7 311M1492.8 308.5L1482.7 311M1353 319.1L1354.7 319.3M1354.7 319.3L1365.3 320.2M1365.3 320.2L1376 320.7M1376 320.7L1386.7 321M1386.7 321L1397.3 321M1397.3 321L1408 320.8M1408 320.8L1418.7 320.2M1418.7 320.2L1429.3 319.4M1431.9 319.1L1429.3 319.4" fill="none" stroke="#F03BB6" stroke-width="1" stroke-opacity="0.36" stroke-linecap="round"/>
<path d="M1351.9 53.2L1354.7 52.7M1354.7 52.7L1365.3 51.2M1365.3 51.2L1376 50.1M1376 50.1L1386.7 49.2M1386.7 49.2L1397.3 48.7M1397.3 48.7L1408 48.5M1408 48.5L1418.7 48.5M1418.7 48.5L1429.3 48.9M1429.3 48.9L1440 49.6M1440 49.6L1450.7 50.6M1450.7 50.6L1461.3 51.9M1461.3 51.9L1470.2 53.2M1307.7 63.8L1312 62.4M1312 62.4L1322.7 59.4M1322.7 59.4L1333.3 56.8M1333.3 56.8L1344 54.6M1351.9 53.2L1344 54.6M1470.2 53.2L1472 53.5M1472 53.5L1482.7 55.4M1482.7 55.4L1493.3 57.7M1493.3 57.7L1504 60.3M1504 60.3L1514.7 63.3M1514.7 63.3L1516.3 63.8M1279.9 74.5L1280 74.5M1280 74.5L1290.7 70M1290.7 70L1301.3 66M1307.7 63.8L1301.3 66M1516.3 63.8L1525.3 66.8M1525.3 66.8L1536 70.7M1536 70.7L1545.3 74.5M1259.3 85.1L1269.3 79.7M1279.9 74.5L1269.3 79.7M1545.3 74.5L1546.7 75.1M1546.7 75.1L1557.3 80.2M1557.3 80.2L1566.7 85.1M1242.8 95.7L1248 92.2M1248 92.2L1258.7 85.4M1259.3 85.1L1258.7 85.4M1566.7 85.1L1568 85.8M1568 85.8L1578.7 92.5M1578.7 92.5L1583.5 95.7M1229.5 106.4L1237.3 99.9M1242.8 95.7L1237.3 99.9M1583.5 95.7L1589.3 100.3M1589.3 100.3L1596.6 106.4M1218.6 117L1226.7 109M1229.5 106.4L1226.7 109M1596.6 106.4L1600 109.8M1209.7 127.7L1216 120M1218.6 117L1216 120M1202.6 138.3L1205.3 134.2M1209.7 127.7L1205.3 134.2M1202.6 138.3L1197.2 148.9M1193.3 159.6L1194.7 155.7M1197.2 148.9L1194.7 155.7M1193.3 159.6L1190.8 170.2M1190.8 170.2L1189.7 180.9M1189.7 180.9L1190 191.5M1190 191.5L1191.7 202.1M1191.7 202.1L1194.7 212.1M1194.7 212.1L1194.9 212.8M1194.9 212.8L1199.7 223.4M1199.7 223.4L1205.3 232.5M1205.3 232.5L1206.3 234M1596.5 234L1600 230.1M1206.3 234L1214.9 244.7M1585.2 244.7L1589.3 240.9M1596.5 234L1589.3 240.9M1214.9 244.7L1216 245.9M1216 245.9L1225.8 255.3M1571.6 255.3L1578.7 249.9M1585.2 244.7L1578.7 249.9M1225.8 255.3L1226.7 256.1M1226.7 256.1L1237.3 264.4M1237.3 264.4L1239.5 266M1555 266L1557.3 264.6M1557.3 264.6L1568 257.7M1571.6 255.3L1568 257.7M1239.5 266L1248 271.4M1248 271.4L1257.2 276.6M1534.7 276.6L1536 276M1536 276L1546.7 270.6M1555 266L1546.7 270.6M1257.2 276.6L1258.7 277.4M1258.7 277.4L1269.3 282.5M1269.3 282.5L1280 287M1280 287L1280.5 287.2M1508.7 287.2L1514.7 285M1514.7 285L1525.3 280.7M1534.7 276.6L1525.3 280.7M1280.5 287.2L1290.7 290.9M1290.7 290.9L1301.3 294.3M1301.3 294.3L1312 297.2M1312 297.2L1314.8 297.9M1471.9 297.9L1472 297.9M1472 297.9L1482.7 295.2M1482.7 295.2L1493.3 292.2M1493.3 292.2L1504 288.8M1508.7 287.2L1504 288.8M1314.8 297.9L1322.7 299.7M1322.7 299.7L1333.3 301.7M1333.3 301.7L1344 303.4M1344 303.4L1354.7 304.7M1354.7 304.7L1365.3 305.7M1365.3 305.7L1376 306.3M1376 306.3L1386.7 306.7M1386.7 306.7L1397.3 306.7M1397.3 306.7L1408 306.4M1408 306.4L1418.7 305.7M1418.7 305.7L1429.3 304.8M1429.3 304.8L1440 303.6M1440 303.6L1450.7 302M1450.7 302L1461.3 300.1M1471.9 297.9L1461.3 300.1" fill="none" stroke="#F03BB6" stroke-width="1" stroke-opacity="0.37" stroke-linecap="round"/>
<path d="M1393.7 63.8L1397.3 63.6M1397.3 63.6L1408 63.5M1408 63.5L1418.7 63.7M1418.7 63.7L1420.8 63.8M1325.6 74.5L1333.3 72.4M1333.3 72.4L1344 69.9M1344 69.9L1354.7 67.9M1354.7 67.9L1365.3 66.3M1365.3 66.3L1376 65M1376 65L1386.7 64.1M1393.7 63.8L1386.7 64.1M1420.8 63.8L1429.3 64.3M1429.3 64.3L1440 65.2M1440 65.2L1450.7 66.5M1450.7 66.5L1461.3 68.1M1461.3 68.1L1472 70.2M1472 70.2L1482.7 72.6M1482.7 72.6L1489.9 74.5M1295.5 85.1L1301.3 82.7M1301.3 82.7L1312 78.8M1312 78.8L1322.7 75.3M1325.6 74.5L1322.7 75.3M1489.9 74.5L1493.3 75.5M1493.3 75.5L1504 78.8M1504 78.8L1514.7 82.7M1514.7 82.7L1520.8 85.1M1274.3 95.7L1280 92.6M1280 92.6L1290.7 87.3M1295.5 85.1L1290.7 87.3M1520.8 85.1L1525.3 87.1M1525.3 87.1L1536 92.3M1536 92.3L1542.4 95.7M1258 106.4L1258.7 105.9M1258.7 105.9L1269.3 98.7M1274.3 95.7L1269.3 98.7M1542.4 95.7L1546.7 98.3M1546.7 98.3L1557.3 105.5M1557.3 105.5L1558.6 106.4M1245.1 117L1248 114.5M1258 106.4L1248 114.5M1558.6 106.4L1568 114.2M1568 114.2L1571.1 117M1234.9 127.7L1237.3 125M1245.1 117L1237.3 125M1571.1 117L1578.7 125.4M1578.7 125.4L1580.6 127.7M1234.9 127.7L1226.9 138.3M1580.6 127.7L1587.6 138.3M1220.8 148.9L1226.7 138.6M1226.9 138.3L1226.7 138.6M1587.6 138.3L1589.3 142M1589.3 142L1592.4 148.9M1220.8 148.9L1216.5 159.6M1592.4 148.9L1595.3 159.6M1213.8 170.2L1216 161.4M1216.5 159.6L1216 161.4M1595.3 159.6L1596.3 170.2M1213.8 170.2L1212.7 180.9M1596.3 170.2L1595.5 180.9M1212.7 180.9L1213.2 191.5M1595.5 180.9L1593 191.5M1213.2 191.5L1215.3 202.1M1588.8 202.1L1589.3 200.8M1593 191.5L1589.3 200.8M1215.3 202.1L1216 204.1M1216 204.1L1219.2 212.8M1588.8 202.1L1582.8 212.8M1219.2 212.8L1224.9 223.4M1574.8 223.4L1578.7 218.3M1582.8 212.8L1578.7 218.3M1224.9 223.4L1226.7 225.9M1226.7 225.9L1232.7 234M1564.6 234L1568 230.5M1574.8 223.4L1568 230.5M1232.7 234L1237.3 239M1237.3 239L1243 244.7M1551.9 244.7L1557.3 240.2M1564.6 234L1557.3 240.2M1243 244.7L1248 248.8M1248 248.8L1256.5 255.3M1536.1 255.3L1546.7 248.4M1551.9 244.7L1546.7 248.4M1256.5 255.3L1258.7 256.8M1258.7 256.8L1269.3 263.4M1269.3 263.4L1274.1 266M1516.1 266L1525.3 261.3M1525.3 261.3L1536 255.4M1536.1 255.3L1536 255.4M1274.1 266L1280 268.9M1280 268.9L1290.7 273.6M1290.7 273.6L1298.4 276.6M1489.4 276.6L1493.3 275.2M1493.3 275.2L1504 271.2M1504 271.2L1514.7 266.7M1516.1 266L1514.7 266.7M1298.4 276.6L1301.3 277.6M1301.3 277.6L1312 281M1312 281L1322.7 283.9M1322.7 283.9L1333.3 286.3M1333.3 286.3L1338.2 287.2M1447.4 287.2L1450.7 286.6M1450.7 286.6L1461.3 284.4M1461.3 284.4L1472 281.8M1472 281.8L1482.7 278.7M1489.4 276.6L1482.7 278.7M1338.2 287.2L1344 288.2M1344 288.2L1354.7 289.8M1354.7 289.8L1365.3 290.9M1365.3 290.9L1376 291.6M1376 291.6L1386.7 292M1386.7 292L1397.3 292M1397.3 292L1408 291.7M1408 291.7L1418.7 290.9M1418.7 290.9L1429.3 289.9M1429.3 289.9L1440 288.4M1447.4 287.2L1440 288.4" fill="none" stroke="#F03BB6" stroke-width="1" stroke-opacity="0.38" stroke-linecap="round"/>
<path d="M1348.5 85.1L1354.7 83.8M1354.7 83.8L1365.3 82.1M1365.3 82.1L1376 80.8M1376 80.8L1386.7 79.9M1386.7 79.9L1397.3 79.4M1397.3 79.4L1408 79.3M1408 79.3L1418.7 79.7M1418.7 79.7L1429.3 80.5M1429.3 80.5L1440 81.6M1440 81.6L1450.7 83.2M1450.7 83.2L1460.4 85.1M1313.2 95.7L1322.7 92.3M1322.7 92.3L1333.3 88.9M1333.3 88.9L1344 86.1M1348.5 85.1L1344 86.1M1460.4 85.1L1461.3 85.3M1461.3 85.3L1472 87.9M1472 87.9L1482.7 91.1M1482.7 91.1L1493.3 94.7M1493.3 94.7L1495.9 95.7M1291 106.4L1301.3 101M1301.3 101L1312 96.2M1313.2 95.7L1312 96.2M1495.9 95.7L1504 99.2M1504 99.2L1514.7 104.5M1514.7 104.5L1518.2 106.4M1274.7 117L1280 113.3M1280 113.3L1290.7 106.6M1291 106.4L1290.7 106.6M1518.2 106.4L1525.3 110.9M1525.3 110.9L1534.2 117M1262.4 127.7L1269.3 121.5M1274.7 117L1269.3 121.5M1534.2 117L1536 118.5M1536 118.5L1546.1 127.7M1252.9 138.3L1258.7 131.7M1262.4 127.7L1258.7 131.7M1546.1 127.7L1546.7 128.4M1546.7 128.4L1554.7 138.3M1245.9 148.9L1248 145.6M1252.9 138.3L1248 145.6M1554.7 138.3L1557.3 142.8M1557.3 142.8L1560.7 148.9M1245.9 148.9L1241 159.6M1560.7 148.9L1564.3 159.6M1241 159.6L1238 170.2M1564.3 159.6L1565.9 170.2M1236.9 180.9L1237.3 176.5M1238 170.2L1237.3 176.5M1565.9 170.2L1565.4 180.9M1236.9 180.9L1237.3 187.5M1237.3 187.5L1237.6 191.5M1565.4 180.9L1563 191.5M1237.6 191.5L1240.3 202.1M1563 191.5L1558.5 202.1M1240.3 202.1L1245 212.8M1551.9 212.8L1557.3 204.1M1558.5 202.1L1557.3 204.1M1245 212.8L1248 217.5M1248 217.5L1252 223.4M1543 223.4L1546.7 219.1M1551.9 212.8L1546.7 219.1M1252 223.4L1258.7 230.9M1258.7 230.9L1261.7 234M1531.2 234L1536 229.8M1543 223.4L1536 229.8M1261.7 234L1269.3 240.5M1269.3 240.5L1274.7 244.7M1516.1 244.7L1525.3 238.4M1531.2 234L1525.3 238.4M1274.7 244.7L1280 248.1M1280 248.1L1290.7 254.3M1290.7 254.3L1292.7 255.3M1496 255.3L1504 251.4M1504 251.4L1514.7 245.5M1516.1 244.7L1514.7 245.5M1292.7 255.3L1301.3 259.3M1301.3 259.3L1312 263.6M1312 263.6L1319.1 266M1467.5 266L1472 264.6M1472 264.6L1482.7 260.8M1482.7 260.8L1493.3 256.5M1496 255.3L1493.3 256.5M1319.1 266L1322.7 267.1M1322.7 267.1L1333.3 269.9M1333.3 269.9L1344 272.2M1344 272.2L1354.7 274M1354.7 274L1365.3 275.4M1365.3 275.4L1376 276.3M1376 276.3L1384 276.6M1400.4 276.6L1408 276.3M1408 276.3L1418.7 275.5M1418.7 275.5L1429.3 274.2M1429.3 274.2L1440 272.5M1440 272.5L1450.7 270.3M1450.7 270.3L1461.3 267.7M1467.5 266L1461.3 267.7M1384 276.6L1386.7 276.7M1386.7 276.7L1397.3 276.7M1400.4 276.6L1397.3 276.7" fill="none" stroke="#F03BB6" stroke-width="1" stroke-opacity="0.39" stroke-linecap="round"/>
<path d="M1336.2 106.4L1344 104M1344 104L1354.7 101.4M1354.7 101.4L1365.3 99.3M1365.3 99.3L1376 97.7M1376 97.7L1386.7 96.7M1386.7 96.7L1397.3 96.3M1397.3 96.3L1408 96.3M1408 96.3L1418.7 96.9M1418.7 96.9L1429.3 98M1429.3 98L1440 99.7M1440 99.7L1450.7 101.9M1450.7 101.9L1461.3 104.6M1461.3 104.6L1467 106.4M1311.1 117L1312 116.5M1312 116.5L1322.7 111.6M1322.7 111.6L1333.3 107.4M1336.2 106.4L1333.3 107.4M1467 106.4L1472 108.2M1472 108.2L1482.7 112.6M1482.7 112.6L1492 117M1294.5 127.7L1301.3 123M1311.1 117L1301.3 123M1492 117L1493.3 117.8M1493.3 117.8L1504 124.6M1504 124.6L1508.3 127.7M1282.4 138.3L1290.7 130.8M1294.5 127.7L1290.7 130.8M1508.3 127.7L1514.7 133.4M1514.7 133.4L1519.6 138.3M1273.8 148.9L1280 141.1M1282.4 138.3L1280 141.1M1519.6 138.3L1525.3 145.9M1525.3 145.9L1527.4 148.9M1267.9 159.6L1269.3 156.9M1273.8 148.9L1269.3 156.9M1527.4 148.9L1532.2 159.6M1267.9 159.6L1264.5 170.2M1532.2 159.6L1534.4 170.2M1264.5 170.2L1263.4 180.9M1534.4 170.2L1534.2 180.9M1263.4 180.9L1264.4 191.5M1534.2 180.9L1531.6 191.5M1264.4 191.5L1267.8 202.1M1531.6 191.5L1526.6 202.1M1267.8 202.1L1269.3 205M1269.3 205L1273.8 212.8M1519 212.8L1525.3 204M1526.6 202.1L1525.3 204M1273.8 212.8L1280 220.3M1280 220.3L1282.9 223.4M1508.2 223.4L1514.7 217.2M1519 212.8L1514.7 217.2M1282.9 223.4L1290.7 230M1290.7 230L1295.9 234M1493.4 234L1504 226.6M1508.2 223.4L1504 226.6M1295.9 234L1301.3 237.4M1301.3 237.4L1312 243.3M1312 243.3L1315 244.7M1472.5 244.7L1482.7 239.8M1482.7 239.8L1493.3 234.1M1493.4 234L1493.3 234.1M1315 244.7L1322.7 247.8M1322.7 247.8L1333.3 251.5M1333.3 251.5L1344 254.5M1344 254.5L1347.7 255.3M1437.9 255.3L1440 254.9M1440 254.9L1450.7 252.1M1450.7 252.1L1461.3 248.8M1461.3 248.8L1472 244.9M1472.5 244.7L1472 244.9M1347.7 255.3L1354.7 256.7M1354.7 256.7L1365.3 258.3M1365.3 258.3L1376 259.4M1376 259.4L1386.7 259.9M1386.7 259.9L1397.3 259.9M1397.3 259.9L1408 259.4M1408 259.4L1418.7 258.4M1418.7 258.4L1429.3 256.9M1437.9 255.3L1429.3 256.9" fill="none" stroke="#F03BB6" stroke-width="1" stroke-opacity="0.40" stroke-linecap="round"/>
<path d="M1380.7 117L1386.7 116.4M1386.7 116.4L1397.3 116M1397.3 116L1408 116.2M1408 116.2L1418.3 117M1339.1 127.7L1344 125.8M1344 125.8L1354.7 122.3M1354.7 122.3L1365.3 119.5M1365.3 119.5L1376 117.5M1380.7 117L1376 117.5M1418.3 117L1418.7 117M1418.7 117L1429.3 118.8M1429.3 118.8L1440 121.3M1440 121.3L1450.7 124.5M1450.7 124.5L1458.9 127.7M1320 138.3L1322.7 136.5M1322.7 136.5L1333.3 130.5M1339.1 127.7L1333.3 130.5M1458.9 127.7L1461.3 128.8M1461.3 128.8L1472 134.7M1472 134.7L1477.5 138.3M1307.8 148.9L1312 144.9M1320 138.3L1312 144.9M1477.5 138.3L1482.7 142.7M1482.7 142.7L1489 148.9M1299.9 159.6L1301.3 157.5M1307.8 148.9L1301.3 157.5M1489 148.9L1493.3 155.4M1493.3 155.4L1495.8 159.6M1299.9 159.6L1295.6 170.2M1495.8 159.6L1499.1 170.2M1295.6 170.2L1294.3 180.9M1499.1 170.2L1499.3 180.9M1294.3 180.9L1295.9 191.5M1499.3 180.9L1496.3 191.5M1295.9 191.5L1300.6 202.1M1490.1 202.1L1493.3 196.8M1496.3 191.5L1493.3 196.8M1300.6 202.1L1301.3 203M1301.3 203L1309.3 212.8M1480 212.8L1482.7 210.2M1490.1 202.1L1482.7 210.2M1309.3 212.8L1312 215.1M1312 215.1L1322.7 223.1M1322.7 223.1L1323.2 223.4M1464.5 223.4L1472 218.6M1480 212.8L1472 218.6M1323.2 223.4L1333.3 228.5M1333.3 228.5L1344 232.9M1344 232.9L1347.5 234M1438.9 234L1440 233.7M1440 233.7L1450.7 229.7M1450.7 229.7L1461.3 225M1464.5 223.4L1461.3 225M1347.5 234L1354.7 236M1354.7 236L1365.3 238.2M1365.3 238.2L1376 239.6M1376 239.6L1386.7 240.4M1386.7 240.4L1397.3 240.4M1397.3 240.4L1408 239.8M1408 239.8L1418.7 238.4M1418.7 238.4L1429.3 236.4M1438.9 234L1429.3 236.4" fill="none" stroke="#F03BB6" stroke-width="1" stroke-opacity="0.40" stroke-linecap="round"/>
<path d="M1364.2 148.9L1365.3 148.5M1365.3 148.5L1376 145.5M1376 145.5L1386.7 143.8M1386.7 143.8L1397.3 143.3M1397.3 143.3L1408 144M1408 144L1418.7 145.9M1418.7 145.9L1428.9 148.9M1347 159.6L1354.7 154.1M1364.2 148.9L1354.7 154.1M1428.9 148.9L1429.3 149.1M1429.3 149.1L1440 155.5M1440 155.5L1445.2 159.6M1339.2 170.2L1344 163.2M1347 159.6L1344 163.2M1445.2 159.6L1450.7 167.6M1450.7 167.6L1452.2 170.2M1339.2 170.2L1337.3 180.9M1452.2 170.2L1453 180.9M1337.3 180.9L1340.7 191.5M1448.5 191.5L1450.7 186.8M1453 180.9L1450.7 186.8M1340.7 191.5L1344 195.5M1344 195.5L1351 202.1M1436.9 202.1L1440 199.7M1448.5 191.5L1440 199.7M1351 202.1L1354.7 204.3M1354.7 204.3L1365.3 209.1M1365.3 209.1L1376 212.3M1376 212.3L1379.6 212.8M1407.7 212.8L1408 212.8M1408 212.8L1418.7 210.1M1418.7 210.1L1429.3 206M1436.9 202.1L1429.3 206M1379.6 212.8L1386.7 213.6M1386.7 213.6L1397.3 213.7M1407.7 212.8L1397.3 213.7" fill="none" stroke="#F03BB6" stroke-width="1" stroke-opacity="0.41" stroke-linecap="round"/>
</g>
</svg>
