<?xml version="1.0" encoding="UTF-8"?>
<svg id="a" data-name="Layer 1" xmlns="http://www.w3.org/2000/svg" viewBox="0 0 1000 260">
  <path d="M465.73,221.05V70.4h38.73v150.64h-38.73ZM543.14,221.05l72.16-150.64h-38.73l-72.16,150.64h38.73ZM450.8,145.84c0-41.82-33.9-75.71-75.71-75.71h-25.79v35.86h25.79c22.01,0,39.85,17.84,39.85,39.85v75.2h35.86v-75.2ZM349.3,106.05h-35.86v115s35.85,0,35.85,0v-115ZM290.8,106.02c-6.95-11.94-16.55-21.34-28.79-28.2-12.24-6.85-25.9-10.28-40.98-10.28s-29.04,3.43-41.28,10.28c-12.24,6.86-21.84,16.26-28.79,28.2-6.95,11.95-10.43,25.26-10.43,39.95s3.48,28.01,10.43,39.95c6.95,11.95,16.55,21.35,28.79,28.2,12.24,6.85,26,10.28,41.28,10.28s28.74-3.43,40.98-10.28c12.24-6.85,21.84-16.25,28.79-28.2,6.95-11.94,10.43-25.26,10.43-39.95s-3.48-28.01-10.43-39.95ZM258.78,168.3c-3.82,6.66-9.06,11.9-15.72,15.72-6.66,3.82-14.1,5.73-22.33,5.73s-15.62-1.91-22.18-5.73c-6.56-3.82-11.75-9.06-15.57-15.72-3.82-6.66-5.73-14.1-5.73-22.33s1.91-15.67,5.73-22.33c3.82-6.66,9.06-11.9,15.72-15.72,6.66-3.82,14.1-5.73,22.33-5.73s15.62,1.91,22.18,5.73c6.56,3.82,11.75,9.06,15.57,15.72,3.82,6.66,5.73,14.1,5.73,22.33s-1.91,15.67-5.73,22.33ZM741.43,202.56l-23.19-23.38c-3.03,3.86-7.09,7.16-12.2,9.93-6.86,3.72-14.69,5.58-23.5,5.58s-15.96-2.01-22.62-6.03c-6.67-4.01-11.9-9.54-15.72-16.6-1.87-3.46-3.28-7.16-4.24-11.09h-36.95c1.46,9.65,4.62,18.63,9.46,26.96,6.95,11.95,16.6,21.34,28.94,28.2,12.33,6.85,26.05,10.28,41.13,10.28,18.22,0,34.22-4.75,48.04-14.24,4.1-2.82,7.85-5.9,11.22-9.23l-.37-.38ZM752.03,108.17c-6.95-12.04-16.6-21.49-28.94-28.35-12.34-6.85-25.95-10.28-40.84-10.28s-28.5,3.43-40.84,10.28c-12.34,6.86-21.99,16.26-28.94,28.2-4.62,7.93-7.72,16.51-9.28,25.65l36.77-.06c.94-3.41,2.59-6.68,4.24-9.73,3.82-7.05,9.06-12.58,15.72-16.6,6.66-4.01,14.1-6.02,22.33-6.02s15.32,1.91,21.89,5.73c6.56,3.82,11.75,9.06,15.57,15.72,1.93,3.37,3.42,7,4.48,10.87l-84.22.06v27.26h121.6c.59-3.53.88-7.73.88-12.63,0-14.69-3.48-28.06-10.43-40.1ZM847.97,70.26c-40.4,0-73.16,32.75-73.16,73.16v77.64h35.86v-77.64c0-20.6,16.7-37.36,37.3-37.36h15.97v-35.79h-15.97ZM913.78,33.58h-35.84v36.67h35.84v-36.67ZM920.85,182.53c-4.77-4.53-7.09-11.01-7.09-19.8v-56.68h-35.73v56.68c0,18.78,6.08,33.93,18.06,45.05,11.7,10.86,26.48,16.36,43.92,16.36h9.67v-34.59h-9.67c-7.92,0-14.18-2.29-19.16-7.02ZM131.14,189.73c-.21,0-.41.02-.62.02-8.23,0-15.62-1.91-22.18-5.73-6.56-3.82-11.75-9.06-15.57-15.72-3.82-6.66-5.73-14.1-5.73-22.33s1.91-15.67,5.73-22.33c3.82-6.66,9.06-11.9,15.72-15.72,6.66-3.82,14.1-5.73,22.33-5.73.11,0,.22,0,.32,0v-34.67c-.11,0-.22,0-.32,0-15.28,0-29.04,3.43-41.28,10.28-12.24,6.86-21.84,16.26-28.79,28.2-6.95,11.95-10.43,25.26-10.43,39.95s3.48,28.01,10.43,39.95c6.95,11.95,16.55,21.35,28.79,28.2,12.24,6.85,26,10.28,41.28,10.28.11,0,.22,0,.32,0v-34.68Z" style="fill: #fff;"/>
  <rect x="896.16" y="70.26" width="53.51" height="35.79" style="fill: #f0f;"/>
</svg>
